<svg id="Layer_1" data-name="Layer 1" xmlns="http://www.w3.org/2000/svg" xmlns:xlink="http://www.w3.org/1999/xlink" viewBox="0 0 360 88.26"><defs><style>.cls-1{fill:none;}.cls-2{clip-path:url(#clip-path);}.cls-3{fill:#a32422;}.cls-4{fill:#dc382c;}.cls-5{fill:#fff;}.cls-6{fill:#741113;}.cls-7{fill:#ac2724;}</style><clipPath id="clip-path"><rect class="cls-1" y="5.81" width="96.21" height="82.45"/></clipPath></defs><title>Redis-labs-logo-reversed1</title><g class="cls-2"><path class="cls-3" d="M92.43,69.38C87.3,72.06,60.7,83,55,86s-8.8,2.92-13.28.78S9,73.16,3.89,70.72C1.34,69.51,0,68.48,0,67.51V57.78s36.85-8,42.8-10.15,8-2.21,13.07-.36S91.2,54.59,96.2,56.42V66c0,1-1.15,2-3.77,3.37Z"/><path class="cls-4" d="M92.43,59.66C87.3,62.33,60.7,73.27,55,76.22s-8.8,2.92-13.28.79S9,63.43,3.89,61s-5.21-4.12-.2-6.08,33.16-13,39.11-15.14,8-2.21,13.07-.35,31.5,12.38,36.5,14.21,5.2,3.34.06,6Z"/><path class="cls-3" d="M92.43,53.53C87.3,56.2,60.7,67.14,55,70.09s-8.8,2.92-13.28.79S9,57.31,3.89,54.87C1.34,53.65,0,52.62,0,51.65V41.93s36.85-8,42.8-10.16,8-2.21,13.07-.35S91.2,38.73,96.2,40.56v9.59c0,1-1.15,2-3.77,3.38Z"/><path class="cls-4" d="M92.43,43.8C87.3,46.48,60.7,57.41,55,60.36s-8.8,2.93-13.28.79S9,47.58,3.89,45.14s-5.21-4.11-.2-6.07,33.16-13,39.11-15.14,8-2.21,13.07-.36S87.37,36,92.37,37.78s5.2,3.34.06,6Z"/><path class="cls-3" d="M92.43,37.08C87.3,39.76,60.7,50.7,55,53.65s-8.8,2.92-13.28.78S9,40.86,3.89,38.42C1.34,37.21,0,36.18,0,35.21V25.48s36.85-8,42.8-10.15,8-2.21,13.07-.36S91.2,22.29,96.2,24.12v9.59c0,1-1.15,2-3.77,3.37Z"/><path class="cls-4" d="M92.43,27.36C87.3,30,60.7,41,55,43.92s-8.8,2.92-13.28.79S9,31.13,3.89,28.7s-5.21-4.12-.2-6.08S36.85,9.62,42.8,7.48s8-2.21,13.07-.35,31.5,12.38,36.5,14.21,5.2,3.34.06,6Z"/></g><polygon class="cls-5" points="49.61 13.54 55.96 11.46 54.24 15.57 60.7 17.99 52.37 18.86 50.5 23.35 47.49 18.34 37.86 17.47 45.05 14.88 42.89 10.9 49.61 13.54 49.61 13.54 49.61 13.54"/><polygon class="cls-5" points="50.01 39.78 34.45 33.32 56.74 29.9 50.01 39.78 50.01 39.78 50.01 39.78"/><path class="cls-5" d="M28.44,20.49c6.58,0,11.91,2.07,11.91,4.62S35,29.73,28.44,29.73s-11.92-2.07-11.92-4.62,5.34-4.62,11.92-4.62Z"/><polygon class="cls-6" points="70.56 19.22 83.75 24.43 70.57 29.64 70.56 19.22 70.56 19.22 70.56 19.22"/><polygon class="cls-7" points="70.56 19.22 70.57 29.64 69.14 30.2 55.96 24.99 70.56 19.22 70.56 19.22 70.56 19.22"/><path class="cls-5" d="M248.74,1.55a1.59,1.59,0,0,1,3.17,0V43.77a1.59,1.59,0,0,1-3.17,0Z"/><path class="cls-5" d="M289.4,15.15V43.77a1.56,1.56,0,0,1-3.11,0V39a14.78,14.78,0,0,1-11.91,6.28c-8.35,0-15-7.18-15-15.86s6.67-15.86,15-15.86a14.75,14.75,0,0,1,11.91,6.21V15.15a1.56,1.56,0,0,1,3.11,0Zm-3.11,14.31c0-7.12-5.37-12.82-11.91-12.82s-11.91,5.7-11.91,12.82,5.43,12.76,11.91,12.76S286.29,36.58,286.29,29.46Z"/><path class="cls-5" d="M298.66,30.17V1.55a1.59,1.59,0,0,1,3.17,0V19.81A15.15,15.15,0,0,1,314,13.6c8.55,0,15.35,7.12,15.35,15.93A15.56,15.56,0,0,1,314,45.32a15.07,15.07,0,0,1-12.17-6.15v4.6a1.59,1.59,0,0,1-3.17,0Zm3.17-.64a12.18,12.18,0,1,0,24.34,0c0-7.06-5.43-12.76-12.17-12.76A12.47,12.47,0,0,0,301.83,29Z"/><path class="cls-5" d="M336.27,38.72a1.53,1.53,0,0,1,2.2-.19c2.2,1.61,5.7,3.69,9.72,3.69a9.57,9.57,0,0,0,6-1.95,4.8,4.8,0,0,0,2.39-3.88c-.06-1.49-.65-2.53-2.26-3.89-1.36-1-3.63-1.81-6.74-2.33l-.13-.06c-2.85-.52-5.37-1.17-7.18-2.46a6.64,6.64,0,0,1-3.44-5.7,7.87,7.87,0,0,1,3.44-6.22,13.66,13.66,0,0,1,7.77-2.13c4.07,0,7,1.88,9.45,3.43a1.64,1.64,0,0,1,.45,2.2,1.55,1.55,0,0,1-2.14.45c-2.33-1.55-4.66-3.17-7.76-3.17a9.54,9.54,0,0,0-6,1.81A4.79,4.79,0,0,0,340,22a3.84,3.84,0,0,0,1.81,3.17,15.91,15.91,0,0,0,6.47,2.2h.13a22.17,22.17,0,0,1,7.71,2.59,7.92,7.92,0,0,1,3.56,6.48,8.08,8.08,0,0,1-3.63,6.41,12.91,12.91,0,0,1-7.89,2.52,19.24,19.24,0,0,1-11.72-4.53A1.45,1.45,0,0,1,336.27,38.72Z"/><path class="cls-5" d="M126.85,17.74a11.24,11.24,0,0,1,4.09-2.85,13.12,13.12,0,0,1,4.8-1.06A4.38,4.38,0,0,1,139,14.89,3.24,3.24,0,0,1,140,17.38,3.51,3.51,0,0,1,139,19.87a3.23,3.23,0,0,1-2.49,1.07c-4.1.36-9.79,4.45-9.79,10V43.54a3.66,3.66,0,0,1-3.56,3.56A3.23,3.23,0,0,1,120.62,46a3.52,3.52,0,0,1-1.07-2.49V17.21a3.52,3.52,0,0,1,1.07-2.49,4.75,4.75,0,0,1,2.67-.89,3.22,3.22,0,0,1,2.49,1.06,3.25,3.25,0,0,1,1.07,2.49Z"/><path class="cls-5" d="M170,29.3a3.43,3.43,0,0,1-.89,2.32,4,4,0,0,1-2.49,1.07h-21A6.79,6.79,0,0,0,147.9,37a9.5,9.5,0,0,0,6.23,3,9.27,9.27,0,0,0,6.94-1.6,3.63,3.63,0,0,1,2.67-1.07,3.07,3.07,0,0,1,2.31.89,2.9,2.9,0,0,1,0,4.27,16.07,16.07,0,0,1-11.56,4.27,15.11,15.11,0,0,1-11.57-5A17.53,17.53,0,0,1,138.12,30a16,16,0,0,1,4.8-11.75,14.82,14.82,0,0,1,11.21-4.8,14.45,14.45,0,0,1,11,4.45,16.3,16.3,0,0,1,5,11v.35Zm-15.84-9.43a9.31,9.31,0,0,0-6,2.32,8.64,8.64,0,0,0-2.84,4.62h18.68a8.13,8.13,0,0,0-3.21-4.44,11.36,11.36,0,0,0-6.58-2.5"/><path class="cls-5" d="M203.48,43.18a3.52,3.52,0,0,1-1.07,2.49,3.48,3.48,0,0,1-2.49,1.07,3.84,3.84,0,0,1-3.56-2.85,15.23,15.23,0,0,1-9.07,2.85,15.47,15.47,0,0,1-11.39-4.8,15.85,15.85,0,0,1-4.63-11.75,16.88,16.88,0,0,1,4.63-11.74,15.65,15.65,0,0,1,11.39-5,14.7,14.7,0,0,1,8.89,2.85V3.86a3.23,3.23,0,0,1,1.07-2.49A3.52,3.52,0,0,1,199.74.3a3.23,3.23,0,0,1,2.49,1.07,3.52,3.52,0,0,1,1.07,2.49V43.18Zm-16-3.56a7.92,7.92,0,0,0,6.22-2.84,9.46,9.46,0,0,0,0-13.17,8.51,8.51,0,0,0-6.22-2.85,7.66,7.66,0,0,0-6.23,2.85,9.46,9.46,0,0,0,0,13.17,8.21,8.21,0,0,0,6.23,2.84"/><path class="cls-5" d="M214,3.86V5.29A3.62,3.62,0,0,1,212.91,8a3.08,3.08,0,0,1-2.49.89,3.22,3.22,0,0,1-2.49-1.06,3.6,3.6,0,0,1-1.07-2.67V3.86a3.48,3.48,0,0,1,1.07-2.49A3.52,3.52,0,0,1,210.42.3a3.25,3.25,0,0,1,2.49,1.07A3.23,3.23,0,0,1,214,3.86m-6,10.86a3.48,3.48,0,0,1,2.49-1.07,3.21,3.21,0,0,1,2.49,1.07A3.62,3.62,0,0,1,214,17.38v26a3,3,0,0,1-1.07,2.49,3.52,3.52,0,0,1-2.49,1.07,3.23,3.23,0,0,1-2.49-1.07,3.48,3.48,0,0,1-1.07-2.49v-26a3.58,3.58,0,0,1,1.07-2.66"/><path class="cls-5" d="M239.24,17.21a3.49,3.49,0,0,1,1.42,2.13,4.7,4.7,0,0,1-.35,2.67,3.54,3.54,0,0,1-2.14,1.42,3.67,3.67,0,0,1-2.67-.53c-2.49-1.6-4.44-2.49-6.05-2.49a5.74,5.74,0,0,0-3.91,1.24c-.71.54-1.07.89-1.07,1.25a1.32,1.32,0,0,0,.18.89,2.38,2.38,0,0,0,.71.53,10.6,10.6,0,0,0,4.81,1.6h0a24.62,24.62,0,0,1,6.4,2,8.88,8.88,0,0,1,4.27,3.74,9.3,9.3,0,0,1,1.42,4.62,9.29,9.29,0,0,1-4.09,7.65,14.32,14.32,0,0,1-8.54,2.67c-4.09,0-8-1.6-11.74-4.62a3.78,3.78,0,0,1-1.25-2.32,3.42,3.42,0,0,1,5.52-3,10.32,10.32,0,0,0,7.29,2.85,7.62,7.62,0,0,0,4.45-1.25c.71-.71,1.25-1.24,1.25-1.78s0-.71-.18-.89c0-.18-.36-.53-.89-.71A13.31,13.31,0,0,0,228.74,33h0a18.48,18.48,0,0,1-6.05-2,10.88,10.88,0,0,1-4.27-3.73,8.29,8.29,0,0,1-1.06-4.09,8.75,8.75,0,0,1,3.91-7.3,14.35,14.35,0,0,1,8.18-2.49c3,.18,6.23,1.42,9.79,3.74"/><path class="cls-5" d="M133.64,79.13h-2.37V71.21h-9.38v7.92h-2.37V61.72h2.37v7.77h9.38V61.72h2.37Z"/><path class="cls-5" d="M158.93,70.43a10.1,10.1,0,0,1-.62,3.59,8.45,8.45,0,0,1-1.75,2.82,7.88,7.88,0,0,1-2.72,1.82,9.75,9.75,0,0,1-7,0,7.75,7.75,0,0,1-2.71-1.82A8.14,8.14,0,0,1,142.38,74a10.7,10.7,0,0,1,0-7.18A8.14,8.14,0,0,1,144.13,64a7.8,7.8,0,0,1,2.71-1.84,9.75,9.75,0,0,1,7,0A7.93,7.93,0,0,1,156.56,64a8.45,8.45,0,0,1,1.75,2.82A10.14,10.14,0,0,1,158.93,70.43Zm-2.42,0a8.89,8.89,0,0,0-.44-2.88,5.9,5.9,0,0,0-1.24-2.15A5.36,5.36,0,0,0,152.89,64a7.13,7.13,0,0,0-5.09,0,5.49,5.49,0,0,0-2,1.36,5.92,5.92,0,0,0-1.25,2.15,9.65,9.65,0,0,0,0,5.76,6.09,6.09,0,0,0,1.25,2.15,5.59,5.59,0,0,0,2,1.35,7.27,7.27,0,0,0,5.09,0,5.46,5.46,0,0,0,1.94-1.35,6.07,6.07,0,0,0,1.24-2.15A8.89,8.89,0,0,0,156.51,70.43Z"/><path class="cls-5" d="M175.87,73.45c.08.22.17.43.25.65.08-.23.16-.44.25-.65s.19-.41.31-.62l5.89-10.71a.68.68,0,0,1,.33-.34,1.48,1.48,0,0,1,.48-.06h1.74V79.13h-2.07V66.34c0-.17,0-.35,0-.55s0-.39,0-.59l-6,10.88a.93.93,0,0,1-.85.55H176a.92.92,0,0,1-.85-.55L169,65.16c0,.21,0,.42.05.62s0,.39,0,.56V79.13H167V61.72h1.73a1.59,1.59,0,0,1,.49.06.77.77,0,0,1,.33.34l6,10.72A5.76,5.76,0,0,1,175.87,73.45Z"/><path class="cls-5" d="M205,61.72v1.92h-8.36v5.78h6.77v1.85h-6.77v5.94H205v1.92H194.22V61.72Z"/><path class="cls-5" d="M238.92,70.43A10.1,10.1,0,0,1,238.3,74a8.29,8.29,0,0,1-1.75,2.82,7.79,7.79,0,0,1-2.72,1.82,9.75,9.75,0,0,1-7,0,7.84,7.84,0,0,1-2.71-1.82A8.29,8.29,0,0,1,222.37,74a10.7,10.7,0,0,1,0-7.18A8.29,8.29,0,0,1,224.12,64a7.89,7.89,0,0,1,2.71-1.84,9.75,9.75,0,0,1,7,0A7.84,7.84,0,0,1,236.55,64a8.29,8.29,0,0,1,1.75,2.82A10.14,10.14,0,0,1,238.92,70.43Zm-2.42,0a8.89,8.89,0,0,0-.44-2.88,5.9,5.9,0,0,0-1.24-2.15A5.36,5.36,0,0,0,232.88,64a7.13,7.13,0,0,0-5.09,0,5.49,5.49,0,0,0-1.95,1.36,6.06,6.06,0,0,0-1.25,2.15,9.86,9.86,0,0,0,0,5.76,6.25,6.25,0,0,0,1.25,2.15,5.59,5.59,0,0,0,1.95,1.35,7.27,7.27,0,0,0,5.09,0,5.46,5.46,0,0,0,1.94-1.35,6.07,6.07,0,0,0,1.24-2.15A8.89,8.89,0,0,0,236.5,70.43Z"/><path class="cls-5" d="M257.73,61.72v1.92h-8.36v6.09h7.14v1.92h-7.14v7.48H247V61.72Z"/><path class="cls-5" d="M277.75,71.87v7.26H275.4V61.72h4.92a10.43,10.43,0,0,1,2.86.34,5.51,5.51,0,0,1,2,1,4,4,0,0,1,1.16,1.53,5.43,5.43,0,0,1,.08,3.72,4.51,4.51,0,0,1-.84,1.44,5,5,0,0,1-1.35,1.09,6.81,6.81,0,0,1-1.81.68,2.48,2.48,0,0,1,.78.74l5.08,6.91h-2.09a1,1,0,0,1-.95-.5l-4.52-6.22a1.36,1.36,0,0,0-.45-.42,1.69,1.69,0,0,0-.73-.12Zm0-1.72h2.46A5.89,5.89,0,0,0,282,69.9a3.64,3.64,0,0,0,1.31-.7,2.86,2.86,0,0,0,.8-1.09,3.48,3.48,0,0,0,.27-1.39,2.8,2.8,0,0,0-1-2.35,5,5,0,0,0-3.06-.79h-2.57Z"/><path class="cls-5" d="M306.4,61.72v1.92H298v5.78h6.76v1.85H298v5.94h8.36v1.92H295.67V61.72Z"/><path class="cls-5" d="M329.74,70.43a9.85,9.85,0,0,1-.62,3.56,8,8,0,0,1-1.75,2.75,8,8,0,0,1-2.71,1.77,9.6,9.6,0,0,1-3.5.62h-6.51V61.72h6.51a9.4,9.4,0,0,1,3.5.63,7.82,7.82,0,0,1,2.71,1.77,8.14,8.14,0,0,1,1.75,2.75A9.89,9.89,0,0,1,329.74,70.43Zm-2.42,0a8.72,8.72,0,0,0-.44-2.86,5.86,5.86,0,0,0-1.24-2.14,5.2,5.2,0,0,0-1.94-1.34,6.68,6.68,0,0,0-2.54-.46H317V77.22h4.14a6.68,6.68,0,0,0,2.54-.46,5.29,5.29,0,0,0,1.94-1.33,5.9,5.9,0,0,0,1.24-2.13A8.78,8.78,0,0,0,327.32,70.43Z"/><path class="cls-5" d="M340.6,79.13h-2.36V61.72h2.36Z"/><path class="cls-5" d="M359,64.44a1,1,0,0,1-.23.28.53.53,0,0,1-.32.09.88.88,0,0,1-.48-.21,5.94,5.94,0,0,0-.69-.45,5.32,5.32,0,0,0-1-.46,4.25,4.25,0,0,0-1.42-.21,4,4,0,0,0-1.4.22,3,3,0,0,0-1,.57,2.46,2.46,0,0,0-.61.86,2.67,2.67,0,0,0-.21,1.06A2,2,0,0,0,352,67.4a3.05,3.05,0,0,0,.95.82,7.21,7.21,0,0,0,1.34.59l1.53.52q.78.27,1.53.6a5.18,5.18,0,0,1,1.33.84,3.81,3.81,0,0,1,.95,1.25,4.2,4.2,0,0,1,.36,1.83,5.85,5.85,0,0,1-.39,2.14,5,5,0,0,1-1.13,1.74,5.18,5.18,0,0,1-1.84,1.17,6.8,6.8,0,0,1-2.47.43,7.53,7.53,0,0,1-3.08-.62,7.23,7.23,0,0,1-2.38-1.66l.68-1.11a1,1,0,0,1,.24-.23.56.56,0,0,1,.31-.09,1,1,0,0,1,.58.27,8,8,0,0,0,.82.6,6.92,6.92,0,0,0,1.19.61,4.79,4.79,0,0,0,1.71.27,4.63,4.63,0,0,0,1.5-.23,3.22,3.22,0,0,0,1.11-.65,3,3,0,0,0,.7-1,3.38,3.38,0,0,0,.24-1.3,2.19,2.19,0,0,0-.36-1.3,3.07,3.07,0,0,0-.94-.84,6.5,6.5,0,0,0-1.33-.58L353.63,71a15.56,15.56,0,0,1-1.53-.58,5,5,0,0,1-1.33-.85,3.82,3.82,0,0,1-.94-1.31,4.63,4.63,0,0,1-.36-1.94,4.57,4.57,0,0,1,.36-1.78,4.4,4.4,0,0,1,1-1.53,5.09,5.09,0,0,1,1.69-1.07,6.06,6.06,0,0,1,2.3-.4,7.32,7.32,0,0,1,2.66.46,6.08,6.08,0,0,1,2.1,1.34Z"/></svg>