<?xml version="1.0" encoding="utf-8"?>
<!-- Generator: Adobe Illustrator 21.1.0, SVG Export Plug-In . SVG Version: 6.00 Build 0)  -->
<svg version="1.1" id="Layer_1" xmlns="http://www.w3.org/2000/svg" xmlns:xlink="http://www.w3.org/1999/xlink" x="0px" y="0px"
	 viewBox="0 0 20 20" style="enable-background:new 0 0 20 20;" xml:space="preserve">
<style type="text/css">
	.st0{fill:none;stroke:#6592B8;stroke-linecap:round;stroke-miterlimit:10;}
	.st1{fill:#231F20;}
	.st2{fill:none;stroke:#231F20;stroke-miterlimit:10;}
	.st3{fill:none;stroke:#231F20;stroke-linejoin:round;stroke-miterlimit:10;}
	.st4{fill:none;stroke:#231F20;stroke-width:2;stroke-linejoin:round;stroke-miterlimit:10;}
	.st5{fill:#B62411;}
	.st6{fill:none;stroke:#FFFFFF;stroke-linejoin:round;stroke-miterlimit:10;}
	.st7{fill:#FFFFFF;}
	.st8{fill:#354253;}
	.st9{fill:none;stroke:#231F20;stroke-width:2;stroke-linecap:round;stroke-miterlimit:10;}
</style>
<path class="st1" d="M18,3.8L16.2,2c-1.2-1.2-3.1-1.2-4.2,0l-8.2,8.2c-0.2,0.2-0.4,0.5-0.5,0.8l-2.1,6.6c-0.1,0.3,0,0.7,0.3,1
	c0.3,0.3,0.6,0.4,1,0.3L9,16.7c0.3-0.1,0.6-0.3,0.8-0.5L18,8C19.2,6.8,19.2,4.9,18,3.8z M14.8,3.4l1.8,1.8c0.4,0.4,0.4,1,0,1.4
	l-1.1,1.1l-3.2-3.2l1.1-1.1C13.8,3,14.4,3,14.8,3.4z M5.9,10.9l4.9-4.9L14,9.1l-4.9,4.9L5.9,10.9z M3.6,16.4l1.1-3.9l2.8,2.8
	L3.6,16.4z"/>
</svg>
