<?xml version="1.0" encoding="utf-8"?>
<!-- Generator: Adobe Illustrator 23.0.0, SVG Export Plug-In . SVG Version: 6.00 Build 0)  -->
<svg version="1.1" id="Layer_1" xmlns="http://www.w3.org/2000/svg" xmlns:xlink="http://www.w3.org/1999/xlink" x="0px" y="0px"
	 viewBox="0 0 360 88.3" style="enable-background:new 0 0 360 88.3;" xml:space="preserve">
<style type="text/css">
	.st0{clip-path:url(#SVGID_2_);}
	.st1{fill:#A32422;}
	.st2{fill:#DC382C;}
	.st3{fill:#FFFFFF;}
	.st4{fill:#741113;}
	.st5{fill:#AC2724;}
	.st6{fill:#494C4D;}
</style>
<title>Redis-labs-logo1</title>
<g>
	<g>
		<defs>
			<rect id="SVGID_1_" y="5.8" width="96.2" height="82.4"/>
		</defs>
		<clipPath id="SVGID_2_">
			<use xlink:href="#SVGID_1_"  style="overflow:visible;"/>
		</clipPath>
		<g class="st0">
			<path class="st1" d="M92.4,69.4C87.3,72.1,60.7,83,55,86s-8.8,2.9-13.3,0.8S9,73.2,3.9,70.7C1.3,69.5,0,68.5,0,67.5v-9.7
				c0,0,36.8-8,42.8-10.2s8-2.2,13.1-0.4s35.3,7.3,40.3,9.2V66C96.2,67,95,68,92.4,69.4L92.4,69.4z"/>
			<path class="st2" d="M92.4,59.7C87.3,62.3,60.7,73.3,55,76.2s-8.8,2.9-13.3,0.8S9,63.4,3.9,61s-5.2-4.1-0.2-6.1
				s33.2-13,39.1-15.1s8-2.2,13.1-0.3s31.5,12.4,36.5,14.2S97.6,57,92.4,59.7L92.4,59.7z"/>
			<path class="st1" d="M92.4,53.5C87.3,56.2,60.7,67.1,55,70.1s-8.8,2.9-13.3,0.8S9,57.3,3.9,54.9C1.3,53.7,0,52.6,0,51.7v-9.7
				c0,0,36.8-8,42.8-10.2s8-2.2,13.1-0.4s35.3,7.3,40.3,9.1v9.6C96.2,51.2,95,52.2,92.4,53.5z"/>
			<path class="st2" d="M92.4,43.8C87.3,46.5,60.7,57.4,55,60.4s-8.8,2.9-13.3,0.8S9,47.6,3.9,45.1s-5.2-4.1-0.2-6.1
				s33.2-13,39.1-15.1s8-2.2,13.1-0.4S87.4,36,92.4,37.8S97.6,41.1,92.4,43.8L92.4,43.8z"/>
			<path class="st1" d="M92.4,37.1C87.3,39.8,60.7,50.7,55,53.7s-8.8,2.9-13.3,0.8S9,40.9,3.9,38.4C1.3,37.2,0,36.2,0,35.2v-9.7
				c0,0,36.8-8,42.8-10.1s8-2.2,13.1-0.4s35.3,7.3,40.3,9.2v9.6C96.2,34.7,95,35.7,92.4,37.1z"/>
			<path class="st2" d="M92.4,27.4C87.3,30,60.7,41,55,43.9s-8.8,2.9-13.3,0.8S9,31.1,3.9,28.7s-5.2-4.1-0.2-6.1s33.2-13,39.1-15.1
				s8-2.2,13.1-0.3s31.5,12.4,36.5,14.2S97.6,24.7,92.4,27.4L92.4,27.4z"/>
		</g>
	</g>
	<polygon class="st3" points="49.6,13.5 56,11.5 54.2,15.6 60.7,18 52.4,18.9 50.5,23.4 47.5,18.3 37.9,17.5 45,14.9 42.9,10.9 
		49.6,13.5 49.6,13.5 	"/>
	<polygon class="st3" points="50,39.8 34.5,33.3 56.7,29.9 50,39.8 50,39.8 	"/>
	<path class="st3" d="M28.4,20.5c6.6,0,11.9,2.1,11.9,4.6s-5.3,4.6-11.9,4.6s-11.9-2.1-11.9-4.6S21.9,20.5,28.4,20.5z"/>
	<polygon class="st4" points="70.6,19.2 83.8,24.4 70.6,29.6 70.6,19.2 70.6,19.2 	"/>
	<polygon class="st5" points="70.6,19.2 70.6,29.6 69.1,30.2 56,25 70.6,19.2 70.6,19.2 	"/>
	<path class="st6" d="M248.7,1.5c0.1-0.9,0.8-1.5,1.7-1.5c0.8,0.1,1.4,0.7,1.5,1.5v42.2c-0.1,0.9-0.8,1.5-1.7,1.5
		c-0.8-0.1-1.4-0.7-1.5-1.5V1.5z"/>
	<path class="st6" d="M289.4,15.1v28.6c-0.1,0.9-0.8,1.5-1.7,1.4c-0.8-0.1-1.4-0.7-1.4-1.4V39c-2.7,3.9-7.2,6.2-11.9,6.3
		c-8.4,0-15-7.2-15-15.9s6.7-15.9,15-15.9c4.7,0,9.2,2.3,11.9,6.2v-4.6c0.1-0.9,0.8-1.5,1.7-1.4C288.7,13.8,289.3,14.4,289.4,15.1z
		 M286.3,29.5c0-7.1-5.4-12.8-11.9-12.8s-11.9,5.7-11.9,12.8s5.4,12.8,11.9,12.8S286.3,36.6,286.3,29.5z"/>
	<path class="st6" d="M298.7,30.2V1.5c0.1-0.9,0.8-1.5,1.7-1.5c0.8,0.1,1.4,0.7,1.5,1.5v18.3c2.8-3.9,7.4-6.2,12.2-6.2
		c8.5,0,15.4,7.1,15.4,15.9c0.1,8.6-6.7,15.7-15.3,15.8c0,0,0,0,0,0c-4.8,0-9.3-2.3-12.2-6.2v4.6c-0.1,0.9-0.8,1.5-1.7,1.5
		c-0.8-0.1-1.4-0.7-1.5-1.5L298.7,30.2z M301.8,29.5c-0.3,6.7,5,12.4,11.7,12.7c6.7,0.3,12.4-5,12.7-11.7c0-0.3,0-0.7,0-1
		c0-7.1-5.4-12.8-12.2-12.8c-6.7,0.2-12,5.6-12.2,12.2L301.8,29.5z"/>
	<path class="st6" d="M336.3,38.7c0.5-0.7,1.5-0.8,2.2-0.2c0,0,0,0,0,0c2.2,1.6,5.7,3.7,9.7,3.7c2.2,0,4.3-0.6,6-2
		c1.4-0.8,2.3-2.3,2.4-3.9c-0.1-1.5-0.6-2.5-2.3-3.9c-1.4-1-3.6-1.8-6.7-2.3l-0.1-0.1c-2.9-0.5-5.4-1.2-7.2-2.5
		c-2.1-1.1-3.4-3.3-3.4-5.7c0.1-2.5,1.4-4.8,3.4-6.2c2.3-1.5,5-2.2,7.8-2.1c4.1,0,7,1.9,9.5,3.4c0.7,0.5,0.9,1.5,0.5,2.2
		c-0.5,0.7-1.4,0.9-2.1,0.5c-2.3-1.5-4.7-3.2-7.8-3.2c-2.1-0.1-4.3,0.5-6,1.8c-1.2,0.8-2,2.2-2,3.7c0,1.3,0.7,2.5,1.8,3.2
		c2,1.2,4.2,1.9,6.5,2.2h0.1c2.7,0.4,5.3,1.3,7.7,2.6c2.2,1.4,3.5,3.9,3.6,6.5c-0.1,2.6-1.5,5-3.6,6.4c-2.3,1.7-5.1,2.6-7.9,2.5
		c-4.3-0.2-8.4-1.8-11.7-4.5C335.8,40.3,335.7,39.4,336.3,38.7C336.2,38.8,336.2,38.7,336.3,38.7z"/>
	<path class="st6" d="M126.8,17.7c1.1-1.2,2.5-2.2,4.1-2.9c1.5-0.7,3.1-1,4.8-1.1c1.2-0.1,2.4,0.3,3.3,1.1c0.7,0.6,1,1.6,1,2.5
		c0,0.9-0.4,1.8-1,2.5c-0.6,0.7-1.5,1.1-2.5,1.1c-4.1,0.4-9.8,4.4-9.8,10v12.6c-0.1,1.9-1.6,3.5-3.6,3.6c-1,0-1.9-0.4-2.5-1.1
		c-0.7-0.7-1.1-1.6-1.1-2.5V17.2c0-0.9,0.4-1.8,1.1-2.5c0.8-0.6,1.7-0.9,2.7-0.9c0.9,0,1.9,0.4,2.5,1.1c0.7,0.6,1.1,1.5,1.1,2.5
		V17.7z"/>
	<path class="st6" d="M170,29.3c0,0.9-0.3,1.7-0.9,2.3c-0.7,0.6-1.6,1-2.5,1.1h-21c0.2,1.7,1,3.2,2.3,4.3c1.6,1.7,3.9,2.8,6.2,3
		c2.4,0.4,4.9-0.2,6.9-1.6c0.7-0.7,1.7-1.1,2.7-1.1c0.9,0,1.7,0.3,2.3,0.9c1.2,1.1,1.3,2.9,0.2,4.1c-0.1,0.1-0.1,0.1-0.2,0.2
		c-3.1,2.9-7.3,4.4-11.6,4.3c-4.4,0.1-8.6-1.7-11.6-5c-3-3.2-4.7-7.4-4.8-11.8c-0.1-4.4,1.6-8.7,4.8-11.8c2.9-3.1,7-4.9,11.2-4.8
		c4.1-0.2,8.1,1.5,11,4.4c3,2.9,4.8,6.8,5,11v0.4L170,29.3z M154.2,19.9c-2.2,0-4.3,0.9-6,2.3c-1.4,1.2-2.4,2.8-2.8,4.6H164
		c-0.5-1.8-1.7-3.4-3.2-4.4C158.9,20.9,156.6,20,154.2,19.9"/>
	<path class="st6" d="M203.5,43.2c0,0.9-0.4,1.8-1.1,2.5c-0.7,0.7-1.5,1.1-2.5,1.1c-1.7-0.1-3.1-1.2-3.6-2.8
		c-2.6,1.9-5.8,2.9-9.1,2.8c-4.3,0.1-8.4-1.7-11.4-4.8c-3.1-3.1-4.8-7.4-4.6-11.8c0-4.4,1.6-8.6,4.6-11.7c2.9-3.2,7.1-5,11.4-5
		c3.2,0,6.3,1,8.9,2.9V3.9c0-0.9,0.4-1.9,1.1-2.5c0.7-0.7,1.6-1.1,2.5-1.1c0.9,0,1.9,0.4,2.5,1.1c0.7,0.7,1.1,1.6,1.1,2.5v39.3
		H203.5z M187.5,39.6c2.4,0,4.7-1,6.2-2.8c3.6-3.7,3.6-9.5,0-13.2c-1.6-1.8-3.8-2.8-6.2-2.9c-2.4-0.1-4.7,1-6.2,2.9
		c-3.6,3.7-3.6,9.5,0,13.2C182.8,38.6,185.1,39.6,187.5,39.6"/>
	<path class="st6" d="M214,3.9v1.4c0,1-0.4,2-1.1,2.7c-0.7,0.7-1.6,1-2.5,0.9c-0.9,0-1.9-0.4-2.5-1.1c-0.7-0.7-1.1-1.7-1.1-2.7V3.9
		c0-0.9,0.4-1.8,1.1-2.5c0.7-0.7,1.6-1.1,2.5-1.1c0.9,0,1.9,0.4,2.5,1.1C213.6,2,214,2.9,214,3.9 M208,14.7c0.7-0.7,1.5-1.1,2.5-1.1
		c0.9,0,1.9,0.4,2.5,1.1c0.7,0.7,1.1,1.7,1,2.7v26c0.1,1-0.3,1.9-1.1,2.5c-0.7,0.7-1.6,1.1-2.5,1.1c-0.9,0-1.9-0.4-2.5-1.1
		c-0.7-0.7-1.1-1.5-1.1-2.5v-26C206.9,16.4,207.2,15.4,208,14.7"/>
	<path class="st6" d="M239.2,17.2c0.7,0.5,1.2,1.3,1.4,2.1c0.1,0.9,0,1.8-0.4,2.7c-0.5,0.7-1.3,1.2-2.1,1.4c-0.9,0.2-1.9,0-2.7-0.5
		c-2.5-1.6-4.4-2.5-6.1-2.5c-1.4-0.1-2.8,0.4-3.9,1.2c-0.7,0.5-1.1,0.9-1.1,1.2c0,0.3,0,0.6,0.2,0.9c0.2,0.2,0.4,0.4,0.7,0.5
		c1.5,0.9,3.1,1.5,4.8,1.6l0,0c2.2,0.4,4.4,1,6.4,2c1.8,0.7,3.3,2.1,4.3,3.7c0.9,1.4,1.4,3,1.4,4.6c0,3.1-1.5,5.9-4.1,7.7
		c-2.5,1.8-5.5,2.7-8.5,2.7c-4.1,0-8-1.6-11.7-4.6c-0.7-0.6-1.1-1.4-1.2-2.3c-0.2-1.9,1.2-3.5,3.1-3.7c0.9-0.1,1.7,0.2,2.4,0.7
		c2,1.9,4.6,2.9,7.3,2.8c1.6,0.1,3.1-0.4,4.4-1.2c0.7-0.7,1.2-1.2,1.2-1.8s0-0.7-0.2-0.9c0-0.2-0.4-0.5-0.9-0.7
		c-1.6-1-3.4-1.6-5.3-1.9l0,0c-2.1-0.3-4.2-1-6.1-2c-1.7-0.8-3.2-2.1-4.3-3.7c-0.7-1.2-1.1-2.7-1.1-4.1c0-2.9,1.5-5.7,3.9-7.3
		c2.4-1.6,5.3-2.5,8.2-2.5C232.5,13.6,235.7,14.8,239.2,17.2"/>
	<path class="st6" d="M133.6,79.1h-2.4v-7.9h-9.4v7.9h-2.4V61.7h2.4v7.8h9.4v-7.8h2.4V79.1z"/>
	<path class="st6" d="M158.9,70.4c0,1.2-0.2,2.4-0.6,3.6c-0.4,1-1,2-1.8,2.8c-0.8,0.8-1.7,1.4-2.7,1.8c-2.3,0.9-4.7,0.9-7,0
		c-1-0.4-1.9-1-2.7-1.8c-0.8-0.8-1.4-1.8-1.7-2.8c-0.8-2.3-0.8-4.9,0-7.2c0.4-1.1,1-2,1.8-2.8c0.8-0.8,1.7-1.4,2.7-1.8
		c2.3-0.9,4.7-0.9,7,0c1,0.4,2,1,2.7,1.8c0.8,0.8,1.4,1.8,1.8,2.8C158.7,68,158.9,69.2,158.9,70.4z M156.5,70.4c0-1-0.1-2-0.4-2.9
		c-0.3-0.8-0.7-1.5-1.2-2.2c-0.5-0.6-1.2-1.1-1.9-1.4c-1.6-0.6-3.5-0.6-5.1,0c-0.8,0.3-1.4,0.8-2,1.4c-0.6,0.6-1,1.4-1.2,2.2
		c-0.6,1.9-0.6,3.9,0,5.8c0.3,0.8,0.7,1.5,1.2,2.2c0.6,0.6,1.2,1.1,2,1.3c1.6,0.6,3.4,0.6,5.1,0c0.7-0.3,1.4-0.8,1.9-1.3
		c0.6-0.6,1-1.4,1.2-2.2C156.4,72.4,156.5,71.4,156.5,70.4z"/>
	<path class="st6" d="M175.9,73.4c0.1,0.2,0.2,0.4,0.2,0.7c0.1-0.2,0.2-0.4,0.2-0.7s0.2-0.4,0.3-0.6l5.9-10.7
		c0.1-0.1,0.2-0.3,0.3-0.3c0.2,0,0.3-0.1,0.5-0.1h1.7v17.4H183V66.3c0-0.2,0-0.3,0-0.6s0-0.4,0-0.6l-6,10.9
		c-0.1,0.3-0.5,0.6-0.9,0.6H176c-0.4,0-0.7-0.2-0.9-0.6L169,65.2c0,0.2,0,0.4,0.1,0.6s0,0.4,0,0.6v12.8H167V61.7h1.7
		c0.2,0,0.3,0,0.5,0.1c0.1,0.1,0.3,0.2,0.3,0.3l6,10.7C175.7,73,175.8,73.2,175.9,73.4z"/>
	<path class="st6" d="M205,61.7v1.9h-8.4v5.8h6.8v1.8h-6.8v5.9h8.4v1.9h-10.8V61.7H205z"/>
	<path class="st6" d="M238.9,70.4c0,1.2-0.2,2.4-0.6,3.6c-0.4,1-1,2-1.8,2.8c-0.8,0.8-1.7,1.4-2.7,1.8c-2.3,0.9-4.7,0.9-7,0
		c-1-0.4-1.9-1-2.7-1.8c-0.8-0.8-1.4-1.8-1.8-2.8c-0.8-2.3-0.8-4.9,0-7.2c0.4-1,1-2,1.8-2.8c0.8-0.8,1.7-1.4,2.7-1.8
		c2.3-0.9,4.7-0.9,7,0c1,0.4,2,1,2.7,1.8c0.8,0.8,1.4,1.8,1.8,2.8C238.7,68,238.9,69.2,238.9,70.4z M236.5,70.4c0-1-0.1-2-0.4-2.9
		c-0.3-0.8-0.7-1.5-1.2-2.2c-0.5-0.6-1.2-1.1-1.9-1.4c-1.6-0.6-3.5-0.6-5.1,0c-0.7,0.3-1.4,0.8-1.9,1.4c-0.6,0.6-1,1.4-1.2,2.2
		c-0.6,1.9-0.6,3.9,0,5.8c0.3,0.8,0.7,1.5,1.2,2.2c0.5,0.6,1.2,1,1.9,1.3c1.6,0.6,3.4,0.6,5.1,0c0.7-0.3,1.4-0.8,1.9-1.3
		c0.6-0.6,1-1.4,1.2-2.2C236.4,72.4,236.5,71.4,236.5,70.4z"/>
	<path class="st6" d="M257.7,61.7v1.9h-8.4v6.1h7.1v1.9h-7.1v7.5H247V61.7H257.7z"/>
	<path class="st6" d="M277.8,71.9v7.3h-2.4V61.7h4.9c1,0,1.9,0.1,2.9,0.3c0.7,0.2,1.4,0.5,2,1c0.5,0.4,0.9,0.9,1.2,1.5
		c0.5,1.2,0.5,2.5,0.1,3.7c-0.2,0.5-0.5,1-0.8,1.4c-0.4,0.4-0.8,0.8-1.4,1.1c-0.6,0.3-1.2,0.5-1.8,0.7c0.3,0.2,0.6,0.4,0.8,0.7
		l5.1,6.9h-2.1c-0.4,0-0.8-0.2-1-0.5l-4.5-6.2c-0.1-0.2-0.3-0.3-0.5-0.4c-0.2-0.1-0.5-0.1-0.7-0.1L277.8,71.9z M277.8,70.2h2.5
		c0.6,0,1.2-0.1,1.8-0.2c0.5-0.1,0.9-0.4,1.3-0.7c0.3-0.3,0.6-0.7,0.8-1.1c0.2-0.4,0.3-0.9,0.3-1.4c0.1-0.9-0.3-1.8-1-2.3
		c-0.9-0.6-2-0.9-3.1-0.8h-2.6L277.8,70.2z"/>
	<path class="st6" d="M306.4,61.7v1.9H298v5.8h6.8v1.8H298v5.9h8.4v1.9h-10.7V61.7H306.4z"/>
	<path class="st6" d="M329.7,70.4c0,1.2-0.2,2.4-0.6,3.6c-0.4,1-1,2-1.8,2.8c-0.8,0.8-1.7,1.4-2.7,1.8c-1.1,0.4-2.3,0.6-3.5,0.6
		h-6.5V61.7h6.5c1.2,0,2.4,0.2,3.5,0.6c1,0.4,1.9,1,2.7,1.8c0.8,0.8,1.4,1.7,1.8,2.8C329.5,68,329.8,69.2,329.7,70.4z M327.3,70.4
		c0-1-0.1-1.9-0.4-2.9c-0.3-0.8-0.7-1.5-1.2-2.1c-0.5-0.6-1.2-1-1.9-1.3c-0.8-0.3-1.7-0.5-2.5-0.5H317v13.6h4.1
		c0.9,0,1.7-0.1,2.5-0.5c0.7-0.3,1.4-0.7,1.9-1.3c0.6-0.6,1-1.3,1.2-2.1C327.2,72.4,327.3,71.4,327.3,70.4L327.3,70.4z"/>
	<path class="st6" d="M340.6,79.1h-2.4V61.7h2.4V79.1z"/>
	<path class="st6" d="M359,64.4c-0.1,0.1-0.1,0.2-0.2,0.3c-0.1,0.1-0.2,0.1-0.3,0.1c-0.2,0-0.3-0.1-0.5-0.2
		c-0.2-0.2-0.4-0.3-0.7-0.4c-0.3-0.2-0.7-0.3-1-0.5c-0.5-0.2-0.9-0.2-1.4-0.2c-0.5,0-1,0.1-1.4,0.2c-0.4,0.1-0.7,0.3-1,0.6
		c-0.3,0.2-0.5,0.5-0.6,0.9c-0.1,0.3-0.2,0.7-0.2,1.1c0,0.4,0.1,0.9,0.4,1.2c0.3,0.3,0.6,0.6,1,0.8c0.4,0.2,0.9,0.4,1.3,0.6l1.5,0.5
		c0.5,0.2,1,0.4,1.5,0.6c0.5,0.2,0.9,0.5,1.3,0.8c0.4,0.3,0.7,0.8,1,1.2c0.3,0.6,0.4,1.2,0.4,1.8c0,0.7-0.1,1.5-0.4,2.1
		c-0.3,0.7-0.6,1.2-1.1,1.7c-0.5,0.5-1.2,0.9-1.8,1.2c-0.8,0.3-1.6,0.4-2.5,0.4c-1.1,0-2.1-0.2-3.1-0.6c-0.9-0.4-1.7-1-2.4-1.7
		l0.7-1.1c0.1-0.1,0.1-0.2,0.2-0.2c0.1-0.1,0.2-0.1,0.3-0.1c0.2,0,0.4,0.1,0.6,0.3c0.3,0.2,0.5,0.4,0.8,0.6c0.4,0.2,0.8,0.4,1.2,0.6
		c0.5,0.2,1.1,0.3,1.7,0.3c0.5,0,1-0.1,1.5-0.2c0.4-0.1,0.8-0.4,1.1-0.7c0.3-0.3,0.5-0.6,0.7-1c0.2-0.4,0.2-0.9,0.2-1.3
		c0-0.5-0.1-0.9-0.4-1.3c-0.3-0.3-0.6-0.6-0.9-0.8c-0.4-0.2-0.9-0.4-1.3-0.6l-1.5-0.5c-0.5-0.2-1-0.4-1.5-0.6
		c-0.5-0.2-0.9-0.5-1.3-0.8c-0.4-0.4-0.7-0.8-0.9-1.3c-0.3-0.6-0.4-1.3-0.4-1.9c0-0.6,0.1-1.2,0.4-1.8c0.2-0.6,0.6-1.1,1-1.5
		c0.5-0.5,1.1-0.8,1.7-1.1c0.7-0.3,1.5-0.4,2.3-0.4c0.9,0,1.8,0.1,2.7,0.5c0.8,0.3,1.5,0.8,2.1,1.3L359,64.4z"/>
</g>
</svg>
