<?xml version="1.0" encoding="utf-8"?>
<!-- Generator: Adobe Illustrator 21.1.0, SVG Export Plug-In . SVG Version: 6.00 Build 0)  -->
<svg version="1.1" id="Layer_1" xmlns="http://www.w3.org/2000/svg" xmlns:xlink="http://www.w3.org/1999/xlink" x="0px" y="0px"
	 viewBox="0 0 22 20" style="enable-background:new 0 0 22 20;" xml:space="preserve">
<style type="text/css">
	.st0{fill:none;stroke:#6592B8;stroke-linecap:round;stroke-miterlimit:10;}
	.st1{fill:#231F20;}
	.st2{fill:none;stroke:#231F20;stroke-miterlimit:10;}
	.st3{fill:none;stroke:#231F20;stroke-linejoin:round;stroke-miterlimit:10;}
	.st4{fill:none;stroke:#231F20;stroke-width:2;stroke-linejoin:round;stroke-miterlimit:10;}
	.st5{fill:#B62411;}
	.st6{fill:none;stroke:#FFFFFF;stroke-linejoin:round;stroke-miterlimit:10;}
	.st7{fill:#FFFFFF;}
	.st8{fill:#354253;}
	.st9{fill:none;stroke:#231F20;stroke-width:2;stroke-linecap:round;stroke-miterlimit:10;}
	.st10{fill:none;stroke:#000000;stroke-width:2;stroke-miterlimit:10;}
</style>
<g>
	<rect x="10.5" y="8.5" width="2" height="5"/>
	<circle cx="11.5" cy="6.5" r="1.2"/>
	<path d="M11.5,0.2c-2.7,0-5.1,0.9-7,2.7c-1.9,1.7-3,4.1-3,6.5c0,2.6,1,4.2,1.8,5.3c-0.3,2.2-2.7,5-2.7,5S5,20,7.8,18.1
		c0.1,0,2.2,0.6,3.7,0.6c4.8,0,9.9-3.5,9.9-9.2C21.5,4.4,17,0.2,11.5,0.2z M11.5,16.6c-2.5,0-4.2-0.8-4.2-0.8S6,17,4.4,17.5
		c1-1.9,0.8-3.4,0.8-3.4S3.5,12,3.5,9.5c0-1.9,0.8-3.7,2.3-5.1C7.3,3,9.3,2.2,11.5,2.2c4.4,0,8,3.2,8,7.2
		C19.5,13.9,15.4,16.6,11.5,16.6z"/>
</g>
</svg>
