<svg id="Layer_1" data-name="Layer 1" xmlns="http://www.w3.org/2000/svg" xmlns:xlink="http://www.w3.org/1999/xlink" viewBox="0 0 357.8 87.8">
  <defs>
    <style>
      .cls-1 {
        fill: none;
      }

      .cls-2 {
        clip-path: url(#clip-path);
      }

      .cls-3 {
        fill: #a42522;
      }

      .cls-4 {
        fill: #dd392c;
      }

      .cls-5 {
        fill: #fff;
      }

      .cls-6 {
        fill: #741113;
      }

      .cls-7 {
        fill: #ad2824;
      }
    </style>
    <clipPath id="clip-path">
      <rect class="cls-1" y="5.8" width="95.7" height="82"></rect>
    </clipPath>
  </defs>
  <g>
    <g class="cls-2">
      <g>
        <path class="cls-3" d="M92,69c-5.1,2.7-31.5,13.5-37.2,16.5s-8.8,2.9-13.2.8S9,72.7,3.9,70.3C1.4,69.1,0,68.1,0,67.1V57.4s36.6-8,42.6-10.1,8-2.2,13-.4S90.7,54.2,95.7,56v9.5C95.7,66.6,94.6,67.6,92,69Z"></path>
        <path class="cls-4" d="M92,59.3C86.9,62,60.5,72.8,54.8,75.8s-8.8,2.9-13.2.8S9,63.1,3.9,60.6s-5.2-4.1-.2-6,33-12.9,38.9-15,8-2.2,13-.4S86.9,51.5,91.9,53.3s5.2,3.4.1,6Z"></path>
        <path class="cls-3" d="M92,53.2c-5.1,2.7-31.5,13.5-37.2,16.5s-8.8,2.9-13.2.8S9,57,3.9,54.5C1.4,53.3,0,52.3,0,51.3V41.6s36.6-8,42.6-10.1,8-2.2,13-.4,35.1,7.3,40.1,9.1v9.6c0,1.1-1.1,2.1-3.7,3.4Z"></path>
        <path class="cls-4" d="M92,43.5C86.9,46.2,60.5,57,54.8,60s-8.8,2.9-13.2.8S9,47.3,3.9,44.9s-5.2-4.1-.2-6,33-13,38.9-15.1,8-2.2,13-.4S86.9,35.7,91.9,37.5s5.2,3.4.1,6Z"></path>
        <path class="cls-3" d="M92,36.9c-5.1,2.7-31.5,13.5-37.2,16.5s-8.8,2.9-13.2.8S9,40.6,3.9,38.2C1.4,37,0,36,0,35V25.3s36.6-8,42.6-10.1,8-2.2,13-.4,35.1,7.3,40.1,9.1v9.5c0,1.1-1.1,2.1-3.7,3.5Z"></path>
        <path class="cls-4" d="M92,27.2c-5.1,2.7-31.5,13.5-37.2,16.5s-8.8,2.9-13.2.8S9,30.9,3.9,28.5s-5.2-4.1-.2-6S36.7,9.6,42.6,7.4s8-2.2,13-.3S86.9,19.4,91.9,21.2s5.2,3.4.1,6Z"></path>
      </g>
    </g>
    <polygon class="cls-5" points="49.4 13.4 55.7 11.4 54 15.5 60.4 17.9 52.1 18.7 50.3 23.2 47.3 18.2 37.7 17.4 44.8 14.8 42.7 10.8 49.4 13.4 49.4 13.4"></polygon>
    <polygon class="cls-5" points="49.8 39.5 34.3 33.1 56.5 29.7 49.8 39.5 49.8 39.5"></polygon>
    <path class="cls-5" d="M28.3,20.4c6.5,0,11.8,2,11.8,4.6s-5.3,4.6-11.8,4.6-11.8-2-11.8-4.6S21.8,20.4,28.3,20.4Z"></path>
    <polygon class="cls-6" points="70.2 19.1 83.3 24.3 70.2 29.5 70.2 19.1 70.2 19.1"></polygon>
    <polygon class="cls-7" points="70.2 19.1 70.2 29.5 68.8 30 55.7 24.8 70.2 19.1 70.2 19.1"></polygon>
    <path class="cls-5" d="M247.4,1.5A1.54,1.54,0,0,1,248.9,0a1.56,1.56,0,0,1,1.6,1.5h0v42a1.58,1.58,0,0,1-1.6,1.6h0a1.56,1.56,0,0,1-1.5-1.6Z"></path>
    <path class="cls-5" d="M287.8,15V43.5a1.56,1.56,0,0,1-3.1.3V38.9a14.38,14.38,0,0,1-11.9,6.2c-8.3,0-14.9-7.2-14.9-15.8s6.6-15.8,14.9-15.8a14.65,14.65,0,0,1,11.9,6.2V15a1.56,1.56,0,1,1,3.1-.3Zm-3.1,14.3c0-7.1-5.3-12.8-11.9-12.8S261,22.2,261,29.3,266.5,42,272.9,42,284.7,36.4,284.7,29.3Z"></path>
    <path class="cls-5" d="M297,30V1.5a1.56,1.56,0,0,1,3.1,0V19.6a14.88,14.88,0,0,1,12.1-6.2,15.54,15.54,0,0,1,15.3,15.8,15.49,15.49,0,0,1-15.2,15.7h0a15.06,15.06,0,0,1-12.1-6.1v4.6a1.56,1.56,0,0,1-3.1,0Zm3.2-.7a12.16,12.16,0,0,0,24.3.7v-.7c0-7-5.4-12.7-12.1-12.7a12.29,12.29,0,0,0-12.1,12.2Z"></path>
    <path class="cls-5" d="M334.4,38.5a1.48,1.48,0,0,1,2.2-.2h0c2.2,1.6,5.7,3.7,9.7,3.7a9.17,9.17,0,0,0,6-1.9,4.87,4.87,0,0,0,2.4-3.9c-.1-1.5-.6-2.5-2.2-3.9a16.14,16.14,0,0,0-6.7-2.3l-.1-.1a19.13,19.13,0,0,1-7.1-2.4,6.41,6.41,0,0,1-3.4-5.7,8,8,0,0,1,3.4-6.2,13.19,13.19,0,0,1,7.7-2.1c4.1,0,7,1.9,9.4,3.4a1.7,1.7,0,0,1,.5,2.2,1.6,1.6,0,0,1-2.1.5c-2.3-1.5-4.6-3.2-7.7-3.2a9.26,9.26,0,0,0-6,1.8,4.75,4.75,0,0,0-2,3.6,3.82,3.82,0,0,0,1.8,3.2,16.83,16.83,0,0,0,6.4,2.2h.1a22.11,22.11,0,0,1,7.6,2.6,7.55,7.55,0,0,1,3.5,6.4,7.88,7.88,0,0,1-3.6,6.4,12.42,12.42,0,0,1-7.9,2.5,18.82,18.82,0,0,1-11.6-4.5,1.48,1.48,0,0,1-.3-2.1Z"></path>
    <path class="cls-5" d="M126.2,17.6a10.71,10.71,0,0,1,4.1-2.8,13,13,0,0,1,4.8-1.1,4.2,4.2,0,0,1,3.2,1.1,3.25,3.25,0,0,1,1.1,2.5,3.58,3.58,0,0,1-1.1,2.5,3.25,3.25,0,0,1-2.5,1.1c-4.1.3-9.7,4.4-9.7,9.9V43.4a3.54,3.54,0,0,1-3.5,3.5,3.58,3.58,0,0,1-2.5-1.1,3.84,3.84,0,0,1-1.1-2.5V17.1a3.58,3.58,0,0,1,1.1-2.5,4.39,4.39,0,0,1,2.7-.9,3.58,3.58,0,0,1,2.5,1.1,3.25,3.25,0,0,1,1.1,2.5v.3Z"></path>
    <path class="cls-5" d="M169.1,29.1a3.17,3.17,0,0,1-.9,2.3,4.41,4.41,0,0,1-2.5,1.1H144.8a6.12,6.12,0,0,0,2.3,4.2,9.63,9.63,0,0,0,6.2,3,9.42,9.42,0,0,0,6.9-1.6,3.81,3.81,0,0,1,2.6-1.1,3.17,3.17,0,0,1,2.3.9,3,3,0,0,1,.2,4.1l-.2.2a15.81,15.81,0,0,1-11.5,4.2,14.8,14.8,0,0,1-11.5-5,17.33,17.33,0,0,1-4.8-11.6,15.54,15.54,0,0,1,4.8-11.7,14.76,14.76,0,0,1,11.1-4.8,14.33,14.33,0,0,1,11,4.4,16.34,16.34,0,0,1,5,11V29Zm-15.8-9.4a9,9,0,0,0-6,2.3,8.51,8.51,0,0,0-2.8,4.6h18.6a7.51,7.51,0,0,0-3.2-4.4,12.18,12.18,0,0,0-6.6-2.5"></path>
    <path class="cls-5" d="M202.4,42.9a3.54,3.54,0,0,1-3.5,3.5,3.34,3.34,0,0,1-2.3-.9,3.22,3.22,0,0,1-1.2-2,14.57,14.57,0,0,1-9,2.8,15,15,0,0,1-11.3-4.8,15.52,15.52,0,0,1-4.6-11.7,17.09,17.09,0,0,1,4.6-11.7,15.23,15.23,0,0,1,11.3-5,15,15,0,0,1,8.9,2.9V3.8a3.47,3.47,0,0,1,1-2.5A3.84,3.84,0,0,1,198.8.2a3.25,3.25,0,0,1,2.5,1.1,4,4,0,0,1,1,2.5V42.9Zm-15.9-3.5a8,8,0,0,0,6.2-2.8,9.48,9.48,0,0,0,0-13.1,8.2,8.2,0,0,0-6.2-2.8,7.73,7.73,0,0,0-6.2,2.8,9.48,9.48,0,0,0,0,13.1,8.39,8.39,0,0,0,6.2,2.8"></path>
    <path class="cls-5" d="M212.8,3.8V5.2a3.63,3.63,0,0,1-1.1,2.6,3,3,0,0,1-2.5.9,3.58,3.58,0,0,1-2.5-1.1,3.86,3.86,0,0,1-1.1-2.7V3.7A3.54,3.54,0,0,1,209.1.2a3.74,3.74,0,0,1,3.7,3.6m-6,10.8a3.63,3.63,0,0,1,2.5-1.1,3.58,3.58,0,0,1,2.5,1.1,3.86,3.86,0,0,1,1.1,2.7V43.1a2.81,2.81,0,0,1-1.1,2.5,3.41,3.41,0,0,1-2.5,1.1,3.58,3.58,0,0,1-2.5-1.1,3.41,3.41,0,0,1-1.1-2.5V17.3a3.86,3.86,0,0,1,1.1-2.7"></path>
    <path class="cls-5" d="M238,17.1a3.75,3.75,0,0,1,1.4,2.1,5.11,5.11,0,0,1-.4,2.7,3.75,3.75,0,0,1-2.1,1.4,3.69,3.69,0,0,1-2.7-.5c-2.5-1.6-4.4-2.5-6-2.5a6,6,0,0,0-3.9,1.2c-.7.5-1.1.9-1.1,1.2a1.49,1.49,0,0,0,.2.9,1.79,1.79,0,0,0,.7.5,10.15,10.15,0,0,0,4.8,1.6h0a25,25,0,0,1,6.4,2,8,8,0,0,1,4.2,3.7,8.86,8.86,0,0,1-2.6,12.2h-.1a14.55,14.55,0,0,1-8.5,2.7c-4.1,0-8-1.6-11.7-4.6a3.47,3.47,0,0,1-1.2-2.3,2.88,2.88,0,0,1,.7-2.5,2.94,2.94,0,0,1,2.3-1.2,3.22,3.22,0,0,1,2.5.7c2.3,1.9,4.8,3,7.3,2.8a7.5,7.5,0,0,0,4.4-1.2c.7-.7,1.2-1.2,1.2-1.8s0-.7-.2-.9c0-.2-.4-.5-.9-.7a13.76,13.76,0,0,0-5.3-1.7h0a21,21,0,0,1-6-1.9,10,10,0,0,1-4.2-3.7A8.46,8.46,0,0,1,220,16a14.6,14.6,0,0,1,8.1-2.5c3.1,0,6.3,1.3,9.9,3.6"></path>
    <path class="cls-5" d="M132.9,78.7h-2.4V70.8h-9.2v7.9h-2.4V61.4h2.4v7.7h9.3V61.4H133V78.7Z"></path>
    <path class="cls-5" d="M158.1,70a11.33,11.33,0,0,1-.6,3.6,10,10,0,0,1-1.7,2.8,8,8,0,0,1-2.7,1.8,9.41,9.41,0,0,1-7,0,8,8,0,0,1-2.7-1.8,6.83,6.83,0,0,1-1.7-2.8,10.46,10.46,0,0,1-.6-3.6,11.33,11.33,0,0,1,.6-3.6,10,10,0,0,1,1.7-2.8,8,8,0,0,1,2.7-1.8,9.41,9.41,0,0,1,7,0,8,8,0,0,1,2.7,1.8,6.83,6.83,0,0,1,1.7,2.8A11.33,11.33,0,0,1,158.1,70Zm-2.4,0a9.67,9.67,0,0,0-.4-2.9,7.19,7.19,0,0,0-1.2-2.1,4.07,4.07,0,0,0-1.9-1.3,7.45,7.45,0,0,0-5.1,0,6.41,6.41,0,0,0-1.9,1.3,4.45,4.45,0,0,0-1.2,2.1,9.25,9.25,0,0,0-.4,2.9,8.63,8.63,0,0,0,.4,2.8,7.19,7.19,0,0,0,1.2,2.1,5,5,0,0,0,1.9,1.3,7.45,7.45,0,0,0,5.1,0,6.41,6.41,0,0,0,1.9-1.3,4.45,4.45,0,0,0,1.2-2.1,11.8,11.8,0,0,0,.4-2.8Z"></path>
    <path class="cls-5" d="M174.9,73l.2.6.3-.6.3-.6,5.9-10.7c.1-.1.2-.3.3-.3s.3-.1.5-.1h1.8V78.6h-2.1V64.8l-5.9,10.8a1,1,0,0,1-.9.6H175a1,1,0,0,1-.9-.6L168,64.7c0,.2.1.4.1.6V78.6H166V61.4h1.7a.9.9,0,0,1,.5.1c.1.1.3.2.3.3l6,10.7A1,1,0,0,1,174.9,73Z"></path>
    <path class="cls-5" d="M203.9,61.4v1.9h-8.3V69h6.7v1.9h-6.7v5.9h8.3v1.9H193.2V61.4Z"></path>
    <path class="cls-5" d="M237.6,70a11.33,11.33,0,0,1-.6,3.6,10,10,0,0,1-1.7,2.8,8,8,0,0,1-2.7,1.8,9.41,9.41,0,0,1-7,0,8,8,0,0,1-2.7-1.8,6.83,6.83,0,0,1-1.7-2.8,10.46,10.46,0,0,1-.6-3.6,11.33,11.33,0,0,1,.6-3.6,10,10,0,0,1,1.7-2.8,8,8,0,0,1,2.7-1.8,9.41,9.41,0,0,1,7,0,8,8,0,0,1,2.7,1.8,6.83,6.83,0,0,1,1.7,2.8A11.33,11.33,0,0,1,237.6,70Zm-2.4,0a9.67,9.67,0,0,0-.4-2.9,7.19,7.19,0,0,0-1.2-2.1,4.07,4.07,0,0,0-1.9-1.3,7.45,7.45,0,0,0-5.1,0,6.41,6.41,0,0,0-1.9,1.3,4.45,4.45,0,0,0-1.2,2.1,9.25,9.25,0,0,0-.4,2.9,8.63,8.63,0,0,0,.4,2.8,7.19,7.19,0,0,0,1.2,2.1,5,5,0,0,0,1.9,1.3,7.45,7.45,0,0,0,5.1,0,6.41,6.41,0,0,0,1.9-1.3,4.45,4.45,0,0,0,1.2-2.1,8.63,8.63,0,0,0,.4-2.8Z"></path>
    <path class="cls-5" d="M256.3,61.4v1.9H248v6h7.1v1.9H248v7.4h-2.4V61.4Z"></path>
    <path class="cls-5" d="M276.2,71.4v7.2h-2.3V61.4h4.9a12.65,12.65,0,0,1,2.8.3,5.38,5.38,0,0,1,2,1,3.27,3.27,0,0,1,1.1,1.5,5.24,5.24,0,0,1,.1,3.7,6.38,6.38,0,0,1-.8,1.4,6.89,6.89,0,0,1-1.3,1.1,13.36,13.36,0,0,1-1.8.7,2.7,2.7,0,0,1,.8.7l5,6.9h-2.1a1.05,1.05,0,0,1-.9-.5L279.2,72a1,1,0,0,0-.5-.4,1.7,1.7,0,0,0-.7-.1Zm0-1.7h2.5a11,11,0,0,0,1.8-.2,3.29,3.29,0,0,0,1.3-.7,4.44,4.44,0,0,0,.8-1.1,3.19,3.19,0,0,0,.3-1.4,2.51,2.51,0,0,0-1-2.3,4.55,4.55,0,0,0-3-.8h-2.6Z"></path>
    <path class="cls-5" d="M304.7,61.4v1.9h-8.3V69h6.8v1.9h-6.7v5.9h8.3v1.9H294.1V61.4Z"></path>
    <path class="cls-5" d="M327.9,70a10.3,10.3,0,0,1-.6,3.5,7.8,7.8,0,0,1-4.4,4.5,10.3,10.3,0,0,1-3.5.6h-6.5V61.4h6.5a10.3,10.3,0,0,1,3.5.6,7.27,7.27,0,0,1,4.4,4.5A7,7,0,0,1,327.9,70Zm-2.4,0a9.67,9.67,0,0,0-.4-2.9,7.19,7.19,0,0,0-1.2-2.1,5,5,0,0,0-1.9-1.3,7.42,7.42,0,0,0-2.5-.5h-4.2V76.7h4.1a5.34,5.34,0,0,0,2.5-.5,5,5,0,0,0,1.9-1.3,4.45,4.45,0,0,0,1.2-2.1,5.21,5.21,0,0,0,.5-2.8Z"></path>
    <path class="cls-5" d="M338.8,78.7h-2.4V61.4h2.4Z"></path>
    <path class="cls-5" d="M357.1,64.1c-.1.1-.1.2-.2.3a.37.37,0,0,1-.3.1c-.2,0-.3-.1-.5-.2a4.35,4.35,0,0,0-.7-.4,4.18,4.18,0,0,0-1-.4,3.4,3.4,0,0,0-1.4-.2,6.75,6.75,0,0,0-1.4.2,2.07,2.07,0,0,0-1,.6,1.56,1.56,0,0,0-.6.8,3.59,3.59,0,0,0-.2,1.1,1.75,1.75,0,0,0,.4,1.2,6.47,6.47,0,0,0,.9.8c.4.2.9.4,1.3.6l1.5.5,1.5.6a5.67,5.67,0,0,1,1.3.8,5.8,5.8,0,0,1,1,1.2,5.84,5.84,0,0,1,.4,1.8,5.22,5.22,0,0,1-.4,2.1,5,5,0,0,1-1.1,1.7,5.67,5.67,0,0,1-1.8,1.2,6.9,6.9,0,0,1-2.5.4,8.15,8.15,0,0,1-3.1-.6,6.6,6.6,0,0,1-2.4-1.7l.7-1.1.2-.2a.37.37,0,0,1,.3-.1.86.86,0,0,1,.6.3c.3.2.5.4.8.6l1.2.6a4.67,4.67,0,0,0,1.7.3,7.72,7.72,0,0,0,1.5-.2,3.88,3.88,0,0,0,1.1-.6,3.59,3.59,0,0,0,.7-1,2.74,2.74,0,0,0,.2-1.3,2,2,0,0,0-.4-1.3,6.47,6.47,0,0,0-.9-.8c-.4-.2-.9-.4-1.3-.6l-1.5-.5-1.5-.6a5.67,5.67,0,0,1-1.3-.8A3.81,3.81,0,0,1,348,68a4.75,4.75,0,0,1,0-3.7,4,4,0,0,1,1-1.5,5,5,0,0,1,1.7-1.1,5.87,5.87,0,0,1,2.3-.4,7.06,7.06,0,0,1,4.7,1.8Z"></path>
  </g>
</svg>