<?xml version="1.0" encoding="utf-8"?>
<!-- Generator: Adobe Illustrator 21.1.0, SVG Export Plug-In . SVG Version: 6.00 Build 0)  -->
<svg version="1.1" id="Layer_1" xmlns="http://www.w3.org/2000/svg" xmlns:xlink="http://www.w3.org/1999/xlink" x="0px" y="0px"
	 viewBox="0 0 18 18" style="enable-background:new 0 0 18 18;" xml:space="preserve">
<style type="text/css">
	.st0{fill:none;stroke:#6592B8;stroke-linecap:round;stroke-miterlimit:10;}
	.st1{fill:#231F20;}
	.st2{fill:none;stroke:#231F20;stroke-miterlimit:10;}
	.st3{fill:none;stroke:#231F20;stroke-linejoin:round;stroke-miterlimit:10;}
	.st4{fill:none;stroke:#231F20;stroke-width:2;stroke-linejoin:round;stroke-miterlimit:10;}
	.st5{fill:#B62411;}
	.st6{fill:none;stroke:#FFFFFF;stroke-linejoin:round;stroke-miterlimit:10;}
	.st7{fill:#FFFFFF;}
	.st8{fill:#354253;}
	.st9{fill:none;stroke:#231F20;stroke-width:2;stroke-linecap:round;stroke-miterlimit:10;}
	.st10{opacity:0.3;fill:#231F20;}
	.st11{fill:none;stroke:#231F20;stroke-linecap:round;stroke-miterlimit:10;}
</style>
<path class="st1" d="M8,1C4.2,1,1,4.2,1,8c0,3.9,3.1,7,7,7c1.8,0,3.4-0.6,4.6-1.7l3.5,3.5c0.2,0.2,0.5,0.2,0.7,0s0.2-0.5,0-0.7
	l-3.5-3.5C14.4,11.4,15,9.8,15,8C15,4.2,11.9,1,8,1z M8,14c-3.3,0-6-2.7-6-6c0-3.3,2.7-6,6-6c3.3,0,6,2.7,6,6C14,11.3,11.3,14,8,14z
	"/>
</svg>
