<?xml version="1.0" encoding="utf-8"?>
<!-- Generator: Adobe Illustrator 21.1.0, SVG Export Plug-In . SVG Version: 6.00 Build 0)  -->
<svg version="1.1" id="Layer_1" xmlns="http://www.w3.org/2000/svg" xmlns:xlink="http://www.w3.org/1999/xlink" x="0px" y="0px"
	 viewBox="0 0 16 23.7" style="enable-background:new 0 0 16 23.7;" xml:space="preserve">
<style type="text/css">
	.st0{fill:none;stroke:#6592B8;stroke-linecap:round;stroke-miterlimit:10;}
	.st1{fill:#231F20;}
	.st2{fill:none;stroke:#231F20;stroke-miterlimit:10;}
	.st3{fill:none;stroke:#231F20;stroke-linejoin:round;stroke-miterlimit:10;}
	.st4{fill:none;stroke:#231F20;stroke-width:2;stroke-linejoin:round;stroke-miterlimit:10;}
	.st5{fill:#B62411;}
	.st6{fill:none;stroke:#FFFFFF;stroke-linejoin:round;stroke-miterlimit:10;}
	.st7{fill:#FFFFFF;}
	.st8{fill:#354253;}
	.st9{fill:none;stroke:#231F20;stroke-width:2;stroke-linecap:round;stroke-miterlimit:10;}
	.st10{fill:none;stroke:#000000;stroke-width:2;stroke-miterlimit:10;}
</style>
<g>
	<g>
		<path d="M8,2.7c3,0,5.3,2.4,5.3,5.5c0,1.5-0.7,2.5-1.5,3.6c-0.6,0.8-1.2,1.7-1.5,2.8H5.6c-0.3-1.1-0.9-2-1.4-2.8
			c-0.8-1.2-1.4-2.2-1.4-3.7C2.7,5.1,5,2.7,8,2.7 M8,0.7c-4.2,0-7.2,3.5-7.2,7.5c0,3.9,3.2,5.4,3.2,8.5h8c0-3.1,3.3-4.5,3.3-8.5
			C15.3,4.1,12.2,0.7,8,0.7L8,0.7z"/>
	</g>
	<g>
		<path d="M11.5,17.7h-7c0,1.1,0.9,2,2,2h3C10.6,19.7,11.5,18.8,11.5,17.7L11.5,17.7z"/>
	</g>
	<g>
		<path d="M10.5,20.7h-5c0,1.1,0.9,2,2,2h1C9.6,22.7,10.5,21.8,10.5,20.7L10.5,20.7z"/>
	</g>
</g>
</svg>
