<?xml version="1.0" encoding="utf-8"?>
<!-- Generator: Adobe Illustrator 22.0.1, SVG Export Plug-In . SVG Version: 6.00 Build 0)  -->
<svg version="1.1" id="Layer_1" xmlns="http://www.w3.org/2000/svg" xmlns:xlink="http://www.w3.org/1999/xlink" x="0px" y="0px"
	 viewBox="0 0 100 100" style="enable-background:new 0 0 100 100;" xml:space="preserve">
<style type="text/css">
	.st0{fill:url(#SVGID_1_);}
</style>
<linearGradient id="SVGID_1_" gradientUnits="userSpaceOnUse" x1="50" y1="78.8992" x2="50" y2="19.4316">
	<stop  offset="0" style="stop-color:#7B2517"/>
	<stop  offset="0.997" style="stop-color:#C92927"/>
</linearGradient>
<path class="st0" d="M37.1,24.2c10.2,0,18.8,6.8,21.7,16.1c2.5-2,5.6-3.1,9-3.1c7.5,0,13.6,5.7,14.5,12.9h0.1
	c7.1,0,12.9,5.8,12.9,12.9c0,7.1-5.8,12.9-12.9,12.9H17.7c-7.1,0-12.9-5.8-12.9-12.9c0-6.1,4.3-11.3,10-12.6
	c-0.2-1.2-0.3-2.4-0.3-3.6C14.5,34.3,24.6,24.2,37.1,24.2 M37.1,20.1c-14.7,0-26.7,12-26.7,26.7c0,0.3,0,0.5,0,0.8
	c-5.9,2.8-9.7,8.7-9.7,15.4c0,9.4,7.6,17,17,17h64.6c9.4,0,17-7.6,17-17c0-8.3-5.9-15.2-13.7-16.7C83.3,38.5,76.1,33,67.8,33
	c-2.4,0-4.8,0.5-7,1.4C56.2,25.8,47.1,20.1,37.1,20.1L37.1,20.1z"/>
</svg>
