<?xml version="1.0" encoding="utf-8"?>
<!-- Generator: Adobe Illustrator 22.0.1, SVG Export Plug-In . SVG Version: 6.00 Build 0)  -->
<svg version="1.1" id="Layer_1" xmlns="http://www.w3.org/2000/svg" xmlns:xlink="http://www.w3.org/1999/xlink" x="0px" y="0px"
	 viewBox="0 0 100 100" style="enable-background:new 0 0 100 100;" xml:space="preserve">
<style type="text/css">
	.st0{fill:url(#SVGID_1_);}
	.st1{fill:url(#SVGID_2_);}
</style>
<g>
	<linearGradient id="SVGID_1_" gradientUnits="userSpaceOnUse" x1="74.1331" y1="61.6687" x2="74.1331" y2="5.5189">
		<stop  offset="0" style="stop-color:#7B2517"/>
		<stop  offset="0.997" style="stop-color:#C92927"/>
	</linearGradient>
	<path class="st0" d="M87.6,27.2v-8c0-7.5-5.9-13.5-13.5-13.5s-13.5,5.9-13.5,13.5v8c-3.6,0.2-6.5,3.3-6.5,6.9v21.7c0,3.8,3.1,7,7,7
		h26c3.8,0,7-3.1,7-7V34.2C94.1,30.5,91.2,27.5,87.6,27.2z M74.1,10.3c5.1,0,9,4,9,9V27H65.1v-7.7C65.1,14.2,69.1,10.3,74.1,10.3z
		 M90.3,56.9c0,1-0.9,1.9-1.9,1.9H59.8c-1,0-1.9-0.9-1.9-1.9V33.1c0-1,0.9-1.9,1.9-1.9h28.6c1,0,1.9,0.9,1.9,1.9V56.9z"/>
	<linearGradient id="SVGID_2_" gradientUnits="userSpaceOnUse" x1="50" y1="79.4659" x2="50" y2="19.8098">
		<stop  offset="0" style="stop-color:#7B2517"/>
		<stop  offset="0.997" style="stop-color:#C92927"/>
	</linearGradient>
	<path class="st1" d="M95.3,65c-0.8,6.4-6.2,11.4-12.9,11.4H17.6c-7.1,0-13-5.8-13-13c0-6.1,4.3-11.3,10-12.6
		c-0.2-1.2-0.3-2.4-0.3-3.6c0-12.5,10.2-22.7,22.7-22.7c5.4,0,10.3,1.9,14.2,5c0.5-1.3,1.2-2.5,2.1-3.6C48.7,22.5,43,20.4,37,20.4
		c-14.8,0-26.8,12-26.8,26.8c0,0.3,0,0.5,0,0.8c-5.9,2.8-9.7,8.7-9.7,15.4c0,9.4,7.7,17.1,17.1,17.1h64.8c9.4,0,17.1-7.7,17.1-17.1
		c0-1.1-0.1-2.1-0.3-3.2C98.3,62.2,97,63.8,95.3,65z"/>
</g>
</svg>
