<?xml version="1.0" encoding="utf-8"?>
<!-- Generator: Adobe Illustrator 18.1.1, SVG Export Plug-In . SVG Version: 6.00 Build 0)  -->
<svg version="1.1" xmlns="http://www.w3.org/2000/svg" xmlns:xlink="http://www.w3.org/1999/xlink" x="0px" y="0px"
	 viewBox="0 0 595.3 595.3" enable-background="new 0 0 595.3 595.3" xml:space="preserve">
<g id="Layer_2">
	<linearGradient id="SVGID_1_" gradientUnits="userSpaceOnUse" x1="173.464" y1="275.5106" x2="420.7518" y2="275.5106">
		<stop  offset="0" style="stop-color:#ED1C24"/>
		<stop  offset="1" style="stop-color:#7A0511"/>
	</linearGradient>
	
		<path fill="none" stroke="url(#SVGID_1_)" stroke-width="7" stroke-linecap="round" stroke-linejoin="round" stroke-miterlimit="10" d="
		M177,225.4l120.1,49.6l120.1-49.6v19.4l-120.1,49.6L177,244.9V225.4z M297.6,178.3L177,225.4 M417.3,225.4l-119.6-47.1 M177,323
		l120.1,49.6L417.3,323v-19.4l-120.1,49.6L177,303.6V323z M177,282.5l120.1,49.6l120.1-49.6v-19.4l-120.1,49.6L177,263.1V282.5z
		 M199.8,254.3l-22.9,8.8 M199.8,292L177,303.6 M417.3,303.6L394.4,292 M417.3,263.1l-21-9.6"/>
</g>
<g id="Layer_4">
	<linearGradient id="SVGID_2_" gradientUnits="userSpaceOnUse" x1="220" y1="225.3333" x2="275" y2="225.3333">
		<stop  offset="0" style="stop-color:#ED1C24"/>
		<stop  offset="1" style="stop-color:#7A0511"/>
	</linearGradient>
	<ellipse fill="url(#SVGID_2_)" cx="247.5" cy="225.3" rx="27.5" ry="11"/>
</g>
<g id="Layer_5">
	
		<linearGradient id="SVGID_3_" gradientUnits="userSpaceOnUse" x1="267.344" y1="255.4861" x2="319.9568" y2="255.4861" gradientTransform="matrix(1.0568 -0.1188 -0.1188 0.8327 6.9913 71.3645)">
		<stop  offset="0" style="stop-color:#ED1C24"/>
		<stop  offset="1" style="stop-color:#7A0511"/>
	</linearGradient>
	<polygon fill="url(#SVGID_3_)" points="260.3,244.3 316.2,236.3 297.6,257.7 	"/>
</g>
<g id="Layer_6">
	<linearGradient id="SVGID_4_" gradientUnits="userSpaceOnUse" x1="273.1581" y1="203.25" x2="320.8973" y2="203.25">
		<stop  offset="0" style="stop-color:#ED1C24"/>
		<stop  offset="1" style="stop-color:#7A0511"/>
	</linearGradient>
	<path fill="url(#SVGID_4_)" d="M273.2,203.2l15.1-5L284,190l13.1,6.3l15.9-4l-5.8,8.9l13.6,5.8l-17.9-0.5l-5.4,9.9l-6.1-10.5
		L273.2,203.2z"/>
	
		<linearGradient id="SVGID_5_" gradientUnits="userSpaceOnUse" x1="318.9238" y1="227.1791" x2="385.8229" y2="227.1791" gradientTransform="matrix(0.9302 -4.794135e-03 -0.6067 1.0577 156.3049 -16.6006)">
		<stop  offset="0" style="stop-color:#ED1C24"/>
		<stop  offset="1" style="stop-color:#7A0511"/>
	</linearGradient>
	<polygon fill="url(#SVGID_5_)" points="342.7,209.6 376.6,223.2 349.7,234.4 316.2,220.3 	"/>
</g>
<g id="Layer_7">
	<linearGradient id="SVGID_6_" gradientUnits="userSpaceOnUse" x1="376.9296" y1="223.1303" x2="376.9296" y2="223.1303">
		<stop  offset="0" style="stop-color:#ED1C24"/>
		<stop  offset="1" style="stop-color:#7A0511"/>
	</linearGradient>
	<path fill="url(#SVGID_6_)" d="M376.9,223.1"/>
	<linearGradient id="SVGID_7_" gradientUnits="userSpaceOnUse" x1="342.6836" y1="221.9878" x2="376.5845" y2="221.9878">
		<stop  offset="0" style="stop-color:#ED1C24"/>
		<stop  offset="1" style="stop-color:#7A0511"/>
	</linearGradient>
	<polygon fill="url(#SVGID_7_)" points="349.7,234.4 342.7,231.4 342.7,209.6 376.6,223.2 	"/>
</g>
<g id="Layer_10">
	
		<linearGradient id="SVGID_8_" gradientUnits="userSpaceOnUse" x1="-134.6137" y1="314.4833" x2="178.6717" y2="314.4833" gradientTransform="matrix(0.9987 5.097792e-02 -5.097792e-02 0.9987 289.4022 112.1724)">
		<stop  offset="0" style="stop-color:#ED1C24"/>
		<stop  offset="1" style="stop-color:#7A0511"/>
	</linearGradient>
	<path fill="url(#SVGID_8_)" d="M168.1,470c-22.2-22.3-36.3-56.2-24.9-63c2.5-1.5,5.5-0.8,8-0.3c16.9,3.9,34,6.7,50.9,10.6
		c17.9,4.2,24.1-6.1,66.5-22c35.8-13.4,71.6-29.9,77.7-18.1c3.1,6-67.5,32.2-64.3,43.4c3.4,12,72.8,20.7,121.8-26.3
		c10.2-9.8,21.8-21.6,39.8-26.2c30.6-7.8-6.5,48.6-37.4,78.2c-8.2,7.8-25.1,21.7-98.6,35.7C223.9,498.1,191.5,493.5,168.1,470z"/>
</g>
</svg>
