<?xml version="1.0" encoding="UTF-8"?><svg id="Layer_1" xmlns="http://www.w3.org/2000/svg" viewBox="0 0 72 72"><defs><style>.cls-1{stroke-miterlimit:10;}.cls-1,.cls-2{fill:none;stroke:#5961ff;}</style></defs><path class="cls-1" d="m41.33,2v4.69s.11,1.45,1.6,2.27c1.49.82,7.92,3.78,7.92,3.78,0,0,1.47.36,3.01-.67,1.53-1.03,3.76-3.41,3.76-3.41"/><path class="cls-1" d="m58.19,61.98l-3.74-3.47s-1.22-.99-2.9-.5c-1.68.48-8.41,3.01-8.41,3.01,0,0-1.28.8-1.51,2.71-.23,1.91.15,5.28.15,5.28"/><path class="cls-1" d="m71.35,39.59h-5.11s-1.58.08-2.46,1.58-4.14,7.9-4.14,7.9c0,0-.4,1.45.71,3.03,1.11,1.58,3.7,3.78,3.7,3.78"/><path class="cls-1" d="m63.57,14.59l-3.43,3.78s-.99,1.22-.46,2.9c.53,1.68,3.13,8.37,3.13,8.37,0,0,.82,1.26,2.73,1.49,1.91.23,5.28-.23,5.28-.23"/><path class="cls-1" d="m38.57,48.31c6.49-.76,11.52-6.27,11.52-12.97s-5.01-12.18-11.47-12.96"/><path class="cls-1" d="m33.61,19.11V2.45C15.6,2.45,1,6.07,1,10.53s14.6,8.08,32.61,8.08"/><path class="cls-1" d="m33.61,68.7v-16.82c-18.01,0-32.61-3.62-32.61-8.08"/><path class="cls-1" d="m19.97,34.44c3.63.41,7.63.65,11.86.69h10.38"/><path class="cls-1" d="m1,27.05c0,2.97,6.28,5.57,15.81,6.98"/><path class="cls-1" d="m1,10.53v49.59c0,4.46,14.6,8.08,32.61,8.08"/><path class="cls-2" d="m37.04,23.51c-.75,0-1.37-.61-1.37-1.37s.61-1.37,1.37-1.37,1.37.61,1.37,1.37-.61,1.37-1.37,1.37Z"/><path class="cls-2" d="m37.04,49.56c-.75,0-1.37-.61-1.37-1.37s.61-1.37,1.37-1.37,1.37.61,1.37,1.37-.61,1.37-1.37,1.37Z"/><path class="cls-2" d="m43.34,36.54c-.75,0-1.37-.61-1.37-1.37s.61-1.37,1.37-1.37,1.37.61,1.37,1.37-.61,1.37-1.37,1.37Z"/><path class="cls-2" d="m27.92,44.35c-.75,0-1.37-.61-1.37-1.37s.61-1.37,1.37-1.37,1.37.61,1.37,1.37-.61,1.37-1.37,1.37Z"/><path class="cls-2" d="m27.92,29.15c-.75,0-1.37-.61-1.37-1.37s.61-1.37,1.37-1.37,1.37.61,1.37,1.37-.61,1.37-1.37,1.37Z"/><path class="cls-2" d="m18.37,35.67c-.75,0-1.37-.61-1.37-1.37s.61-1.37,1.37-1.37,1.37.61,1.37,1.37-.61,1.37-1.37,1.37Z"/><path class="cls-2" d="m47.47,27.79h-18.24"/><path class="cls-2" d="m47.47,42.98h-18.24"/></svg>