<svg id="Layer_1" data-name="Layer 1" xmlns="http://www.w3.org/2000/svg" xmlns:xlink="http://www.w3.org/1999/xlink" viewBox="0 0 28.6 26.8"><defs><style>.cls-1{fill:url(#linear-gradient);}.cls-2{fill:url(#linear-gradient-2);}.cls-3{fill:url(#linear-gradient-3);}.cls-4{fill:#fff;}.cls-5{fill:url(#linear-gradient-4);}.cls-6{fill:url(#linear-gradient-5);}.cls-7{fill:url(#linear-gradient-6);}.cls-8{fill:url(#linear-gradient-7);}.cls-9{fill:url(#linear-gradient-8);}</style><linearGradient id="linear-gradient" x1="19.6" y1="29.24" x2="19.6" y2="0.11" gradientUnits="userSpaceOnUse"><stop offset="0" stop-color="#aa4237"/><stop offset="1" stop-color="#6c3024"/></linearGradient><linearGradient id="linear-gradient-2" x1="19.6" y1="51.84" x2="19.6" y2="22.71" xlink:href="#linear-gradient"/><linearGradient id="linear-gradient-3" x1="19.6" y1="42.84" x2="19.6" y2="13.71" xlink:href="#linear-gradient"/><linearGradient id="linear-gradient-4" x1="14.25" y1="11.04" x2="14.25" y2="-18.09" xlink:href="#linear-gradient"/><linearGradient id="linear-gradient-5" x1="14.25" y1="2.34" x2="14.25" y2="-26.79" xlink:href="#linear-gradient"/><linearGradient id="linear-gradient-6" x1="5.6" y1="8.2" x2="13.1" y2="8.2" gradientUnits="userSpaceOnUse"><stop offset="0" stop-color="#fff"/><stop offset="1" stop-color="#fffdfd"/></linearGradient><linearGradient id="linear-gradient-7" x1="24.6" y1="22.54" x2="24.6" y2="-6.59" xlink:href="#linear-gradient"/><linearGradient id="linear-gradient-8" x1="14.6" y1="24.14" x2="14.6" y2="-4.99" xlink:href="#linear-gradient"/></defs><title>icons_ico-multimodel-2</title><path class="cls-1" d="M19.9,10.8h-.3a.37.37,0,0,0-.3.1l-14,5.5v2.9l13.3,5.5a3.55,3.55,0,0,0,1,.2,3.55,3.55,0,0,0,1-.2l13.3-5.5V16.4Zm-.6.9a.37.37,0,0,1,.3-.1.6.6,0,0,1,.4.1l12.7,5L20.2,21.9a2.05,2.05,0,0,1-1.1,0L6.5,16.6Zm13.9,7L20,24.1a.6.6,0,0,1-.4.1c-.2,0-.3,0-.4-.1L6,18.8V17.5l13.3,5.4h.4l13.4-5.4v1.2Z" transform="translate(-5.3 -7.1)"/><path class="cls-2" d="M32,24.5l-1,.4,1.7.7L20.2,30.8a1.09,1.09,0,0,1-.5.1.75.75,0,0,1-.5-.1L6.4,25.6l1.7-.7-1-.4-1.8.8v2.9l13.3,5.5a3.55,3.55,0,0,0,1,.2,3.55,3.55,0,0,0,1-.2l13.3-5.5V25.3Zm1.2,3.1L20,33.1a.6.6,0,0,1-.4.1c-.2,0-.3,0-.4-.1L6,27.7V26.4l13.3,5.4h.4l13.4-5.4v1.2Z" transform="translate(-5.3 -7.1)"/><path class="cls-3" d="M32,20l-1,.4,1.7.7L20.2,26.3a1.09,1.09,0,0,1-.5.1.75.75,0,0,1-.5-.1L6.4,21.1l1.7-.7-1-.4-1.8.8v2.9l13.3,5.5a3.55,3.55,0,0,0,1,.2,3.55,3.55,0,0,0,1-.2l13.3-5.5V20.8Zm1.2,3.1L20,28.6a.6.6,0,0,1-.4.1c-.2,0-.3,0-.4-.1L6,23.2V21.9l13.3,5.4h.4l13.4-5.4v1.2Z" transform="translate(-5.3 -7.1)"/><polygon class="cls-4" points="10.5 1.8 14.2 0.3 17.9 1.8 17.9 7.1 14.2 8.6 10.5 7.2 10.5 1.8"/><polygon class="cls-5" points="15.6 7.8 14.5 8.2 14.5 3.7 17.6 2.4 17.6 4.1 18.2 4 18.2 1.6 14.2 3.2 10.3 1.6 10.3 6 10.9 6.1 10.9 2.4 13.9 3.7 13.9 8.2 12.8 7.8 13 8.3 14.2 8.9 15.6 8.4 15.6 7.8"/><polygon class="cls-6" points="14.2 0.5 17.5 1.8 18.2 1.6 14.2 0 10.3 1.6 10.9 1.8 14.2 0.5"/><polygon class="cls-7" points="5.6 6.7 9.4 5.2 13.1 6.7 13.1 9.7 9.3 11.2 5.6 9.8 5.6 6.7"/><polygon class="cls-4" points="15.7 5 19.4 3.4 23.1 5 23.1 9.7 19.4 11.2 15.7 9.8 15.7 5"/><path class="cls-8" d="M24.6,10.4,20.7,12v5.1l3.9,1.6,3.9-1.6V12Zm-.2,7.5-3.1-1.2V12.8L24.4,14Zm-3-5.7,3.3-1.3L28,12.2l-3.3,1.3ZM28,16.7l-3,1.2V14l3-1.2Z" transform="translate(-5.3 -7.1)"/><path class="cls-9" d="M18.6,13.5l-4-1.5-3.9,1.5.6.2,3.3-1.3,3.3,1.3H18l-3.5,1.4-3.9-1.6v3.6l3.9,1.6,3.9-1.6.2-3.6ZM14.3,18l-3.1-1.2V14.4l3.1,1.2ZM18,16.8,14.9,18V15.6L18,14.4Z" transform="translate(-5.3 -7.1)"/></svg>