<?xml version="1.0" encoding="utf-8"?>
<!-- Generator: Adobe Illustrator 23.0.1, SVG Export Plug-In . SVG Version: 6.00 Build 0)  -->
<svg version="1.1" id="Ebene_1" xmlns="http://www.w3.org/2000/svg" xmlns:xlink="http://www.w3.org/1999/xlink" x="0px" y="0px"
	 viewBox="0 0 32 32" style="enable-background:new 0 0 32 32;" xml:space="preserve">
<style type="text/css">
	.st0{fill:#5961ff;}
</style>
<title>redis 32</title>
<path class="st0" d="M16,32c-0.6,0-1.1-0.1-1.6-0.4L3.3,25.2c-1-0.6-1.6-1.6-1.6-2.7V9.6c0-1.1,0.6-2.2,1.6-2.7l11.1-6.4
	c1-0.6,2.2-0.6,3.2,0l11.1,6.4c1,0.6,1.6,1.6,1.6,2.7v12.8c0,1.1-0.6,2.2-1.6,2.7l-11.1,6.4C17.1,31.9,16.6,32,16,32z M16,1
	c-0.4,0-0.8,0.1-1.1,0.3L3.8,7.7C3.1,8.1,2.7,8.8,2.7,9.6v12.8c0,0.8,0.4,1.5,1.1,1.9l11.1,6.4c0.7,0.4,1.5,0.4,2.2,0l11.1-6.4
	c0.7-0.4,1.1-1.1,1.1-1.9V9.6c0-0.8-0.4-1.5-1.1-1.9L17.1,1.3C16.8,1.1,16.4,1,16,1z"/>
<path class="st0" d="M13.7,19.2H6.2v-7.5h7.5C13.7,11.7,13.7,19.2,13.7,19.2z M7.2,18.2h5.5v-5.5H7.2C7.2,12.7,7.2,18.2,7.2,18.2z"
	/>
<path class="st0" d="M19.5,26.4c-2.3,0-4.2-1.9-4.2-4.2c0-2.3,1.9-4.2,4.2-4.2c2.3,0,4.2,1.9,4.2,4.2C23.7,24.5,21.8,26.4,19.5,26.4
	z M19.5,19c-1.8,0-3.2,1.4-3.2,3.2s1.4,3.2,3.2,3.2c1.8,0,3.2-1.4,3.2-3.2c0,0,0,0,0,0C22.7,20.4,21.2,19,19.5,19L19.5,19z"/>
<path class="st0" d="M24.5,13.8h-8.1l-0.2-0.3c-0.1-0.2-0.1-0.4,0-0.6l4.1-7.1l0.3,0l0,0c0.2,0,0.4,0.1,0.5,0.3l4.1,7.1l-0.3,0.6
	L24.5,13.8z M17.4,12.8h6.4l-3.2-5.5L17.4,12.8z M20.9,6.6L20.9,6.6L20.9,6.6z"/>
</svg>
