<?xml version="1.0" encoding="UTF-8" standalone="no"?>
<!-- Generator: Adobe Illustrator 23.0.1, SVG Export Plug-In . SVG Version: 6.00 Build 0)  -->

<svg
   version="1.1"
   id="Ebene_1"
   x="0px"
   y="0px"
   viewBox="0 0 32 32"
   style="enable-background:new 0 0 32 32;"
   xml:space="preserve"
   sodipodi:docname="ico-blank-icon.svg"
   inkscape:version="1.1.2 (b8e25be833, 2022-02-05)"
   xmlns:inkscape="http://www.inkscape.org/namespaces/inkscape"
   xmlns:sodipodi="http://sodipodi.sourceforge.net/DTD/sodipodi-0.dtd"
   xmlns="http://www.w3.org/2000/svg"
   xmlns:svg="http://www.w3.org/2000/svg"
   xmlns:rdf="http://www.w3.org/1999/02/22-rdf-syntax-ns#"
   xmlns:cc="http://creativecommons.org/ns#"
   xmlns:dc="http://purl.org/dc/elements/1.1/"><defs
   id="defs58"><inkscape:path-effect
     effect="powerstroke"
     id="path-effect22714"
     is_visible="true"
     lpeversion="1"
     offset_points="1,18.37"
     not_jump="false"
     sort_points="true"
     interpolator_type="CubicBezierJohan"
     interpolator_beta="0.2"
     start_linecap_type="zerowidth"
     linejoin_type="extrp_arc"
     miter_limit="4"
     scale_width="1"
     end_linecap_type="zerowidth" /></defs><sodipodi:namedview
   id="namedview56"
   pagecolor="#ffffff"
   bordercolor="#666666"
   borderopacity="1.0"
   inkscape:pageshadow="2"
   inkscape:pageopacity="0.0"
   inkscape:pagecheckerboard="0"
   showgrid="false"
   inkscape:zoom="18.71875"
   inkscape:cx="15.679466"
   inkscape:cy="16"
   inkscape:window-width="1368"
   inkscape:window-height="850"
   inkscape:window-x="-6"
   inkscape:window-y="-6"
   inkscape:window-maximized="1"
   inkscape:current-layer="Ebene_1"
   inkscape:snap-page="true" />
<style
   type="text/css"
   id="style43">
	.st0{fill:#5961ff;}
</style>
<title
   id="title45">redis 32</title>
<path
   class="st0"
   d="M16,32c-0.6,0-1.1-0.1-1.6-0.4L3.3,25.2c-1-0.6-1.6-1.6-1.6-2.7V9.6c0-1.1,0.6-2.2,1.6-2.7l11.1-6.4  c1-0.6,2.2-0.6,3.2,0l11.1,6.4c1,0.6,1.6,1.6,1.6,2.7v12.8c0,1.1-0.6,2.2-1.6,2.7l-11.1,6.4C17.1,31.9,16.6,32,16,32z M16,1  c-0.4,0-0.8,0.1-1.1,0.3L3.8,7.7C3.1,8.1,2.7,8.8,2.7,9.6v12.8c0,0.8,0.4,1.5,1.1,1.9l11.1,6.4c0.7,0.4,1.5,0.4,2.2,0l11.1-6.4  c0.7-0.4,1.1-1.1,1.1-1.9V9.6c0-0.8-0.4-1.5-1.1-1.9L17.1,1.3C16.8,1.1,16.4,1,16,1z"
   id="path47"
   style="fill-opacity:0;fill:#5961ff" />



<metadata
   id="metadata140"><rdf:RDF><cc:Work
       rdf:about=""><dc:title>redis 32</dc:title></cc:Work></rdf:RDF></metadata></svg>
