<?xml version="1.0" encoding="utf-8"?>
<!-- Generator: Adobe Illustrator 23.0.2, SVG Export Plug-In . SVG Version: 6.00 Build 0)  -->
<svg version="1.1" id="Layer_1" xmlns="http://www.w3.org/2000/svg" xmlns:xlink="http://www.w3.org/1999/xlink" x="0px" y="0px"
	 viewBox="0 0 200 200" style="enable-background:new 0 0 200 200;" xml:space="preserve">
<style type="text/css">
	.st0{fill:#5961ff;}
</style>
<path class="st0" d="M80.5,59.7c15.7,0,29,10.5,33.4,24.8c3.9-3.1,8.6-4.8,13.9-4.8c11.6,0,20.9,8.8,22.3,19.9h0.2
	c10.9,0,19.9,8.9,19.9,19.9s-8.9,19.9-19.9,19.9H50.6c-10.9,0-19.9-8.9-19.9-19.9c0-9.4,6.6-17.4,15.4-19.4
	c-0.3-1.8-0.5-3.7-0.5-5.5C45.7,75.3,61.3,59.7,80.5,59.7 M80.5,53.4c-22.6,0-41.1,18.5-41.1,41.1c0,0.5,0,0.8,0,1.2
	c-9.1,4.3-14.9,13.4-14.9,23.7c0,14.5,11.7,26.2,26.2,26.2h99.5c14.5,0,26.2-11.7,26.2-26.2c0-12.8-9.1-23.4-21.1-25.7
	c-3.5-12-14.6-20.5-27.4-20.5c-3.7,0-7.4,0.8-10.8,2.2C109.9,62.2,95.9,53.4,80.5,53.4L80.5,53.4z"/>
</svg>
