<?xml version="1.0" encoding="utf-8"?>
<!-- Generator: Adobe Illustrator 23.0.2, SVG Export Plug-In . SVG Version: 6.00 Build 0)  -->
<svg version="1.1" id="Layer_1" xmlns="http://www.w3.org/2000/svg" xmlns:xlink="http://www.w3.org/1999/xlink" x="0px" y="0px"
	 viewBox="0 0 200 200" style="enable-background:new 0 0 200 200;" xml:space="preserve">
<style type="text/css">
	.st0{fill:#5961ff;}
</style>
<g>
	<g>
		<path class="st0" d="M146.8,90.8l-34.4,19.4l-0.3,39.5l34,20l34.4-19.4l0.3-39.5L146.8,90.8z M169.6,111.9l-24.5,11.5l-21.4-11.9
			l23.1-13.1L169.6,111.9z M119,117.3l23.3,12.9v29.7L118.7,146L119,117.3z M149.5,160.3v-30.9l24.6-11.6l-0.3,28.7L149.5,160.3z"/>
		<path class="st0" d="M51.9,90.8l-34.4,19.4l-0.3,39.5l34,20l34.4-19.4l0.3-39.5L51.9,90.8z M74.7,111.9l-24.5,11.5l-21.4-11.9
			l23.1-13.1L74.7,111.9z M24.1,117.3l23.3,12.9v29.7L23.9,146L24.1,117.3z M54.7,160.3v-30.9l24.6-11.6L79,146.5L54.7,160.3z"/>
	</g>
	<path class="st0" d="M99.4,16.4L65,35.9l-0.3,39.5l34,20L133,75.9l0.3-39.5L99.4,16.4z M122.1,37.5L97.6,49L76.2,37.1L99.3,24
		L122.1,37.5z M71.5,42.8l23.3,12.9v29.7L71.3,71.6L71.5,42.8z M102.1,85.9V55l24.6-11.6l-0.3,28.7L102.1,85.9z"/>
	<g>
		<polygon class="st0" points="127.2,154.7 98.3,171 71,155 64.4,158.7 98.2,178.6 133.8,158.5 		"/>
		<g>
			<polygon class="st0" points="68.2,46.1 34.1,65.4 33.8,105 40.4,101.3 40.7,69.2 68.2,53.7 			"/>
			<polygon class="st0" points="130,46.3 129.9,53.9 157.6,70.3 157.4,100.7 163.9,104.6 164.3,66.5 			"/>
		</g>
	</g>
</g>
</svg>
