<?xml version="1.0" encoding="utf-8"?>
<!-- Generator: Adobe Illustrator 23.0.2, SVG Export Plug-In . SVG Version: 6.00 Build 0)  -->
<svg version="1.1" id="Layer_1" xmlns="http://www.w3.org/2000/svg" xmlns:xlink="http://www.w3.org/1999/xlink" x="0px" y="0px"
	 viewBox="0 0 200 200" style="enable-background:new 0 0 200 200;" xml:space="preserve">
<style type="text/css">
	.st0{fill:#5961ff;}
</style>
<path class="st0" d="M155.3,124.5h-29.9c-7.2,0-13-5.8-13-13v-25c0-7.2,5.8-13,13-13h29.9c7.2,0,13,5.8,13,13v25
	C168.3,118.6,162.4,124.5,155.3,124.5z M125.4,79.4c-3.9,0-7,3.1-7,7v25c0,3.9,3.1,7,7,7h29.9c3.9,0,7-3.1,7-7v-25c0-3.9-3.1-7-7-7
	H125.4z"/>
<path class="st0" d="M129.9,75.7V62.8c0-5.7,4.7-10.4,10.4-10.4c5.7,0,10.4,4.7,10.4,10.4v12.8h6.3V62.8c0-9.2-7.5-16.7-16.7-16.7
	c-9.2,0-16.7,7.5-16.7,16.7v12.8H129.9z"/>
<path class="st0" d="M177.8,110.8l-3.3,8.1c1,2.4,1.5,5,1.5,7.7c0,11.9-9.7,21.6-21.5,21.6H46.4c-11.9,0-21.6-9.7-21.6-21.6
	c0-10.2,7.2-18.9,16.7-21c-0.3-2-0.5-4-0.5-6c0-20.9,16.9-37.8,37.8-37.8c12.4,0,23.3,6,30.2,15.3V67c-8.1-7.4-18.8-12-30.2-12
	c-24.6,0-44.6,20-44.6,44.6c0,0.5,0,0.8,0,1.3c-9.9,4.7-16.2,14.5-16.2,25.7c0,15.7,12.7,28.4,28.4,28.4h107.9
	c15.7,0,28.4-12.7,28.4-28.4C182.7,120.8,180.9,115.4,177.8,110.8z"/>
</svg>
