<?xml version="1.0" encoding="utf-8"?>
<!-- Generator: Adobe Illustrator 23.1.1, SVG Export Plug-In . SVG Version: 6.00 Build 0)  -->
<svg version="1.1" id="Ebene_1" xmlns="http://www.w3.org/2000/svg" xmlns:xlink="http://www.w3.org/1999/xlink" x="0px" y="0px"
	 viewBox="0 0 32 32" style="enable-background:new 0 0 32 32;" xml:space="preserve">
<style type="text/css">
	.st0{fill:#5961ff;}
</style>
<title>redis 32</title>
<path class="st0" d="M18.7,5.9c-0.6-0.4-1.2-0.8-1.9-1c-1.5-0.5-3.2-0.5-4.7,0c-0.7,0.2-1.4,0.6-1.9,1c-0.6,0.4-1,0.9-1.4,1.5
	C8.1,8.6,8,10.1,8.7,11.3c0.3,0.6,0.8,1.1,1.3,1.6c0.6,0.5,1.3,0.8,2,1c0.8,0.3,1.6,0.4,2.4,0.4c0.8,0,1.6-0.1,2.4-0.4
	c0.7-0.2,1.4-0.6,2-1s1-0.9,1.3-1.6c0.7-1.2,0.7-2.7,0-3.9C19.7,6.8,19.2,6.3,18.7,5.9z M19.2,10.8c-0.3,0.5-0.6,0.9-1.1,1.2
	c-0.5,0.4-1.1,0.7-1.7,0.9c-1.4,0.4-2.8,0.4-4.2,0c-0.6-0.2-1.2-0.5-1.7-0.9c-0.4-0.3-0.8-0.8-1.1-1.2C9.2,10.4,9,9.9,9,9.4
	s0.2-1,0.4-1.4c0.3-0.5,0.7-0.9,1.1-1.2C11,6.4,11.6,6.1,12.2,6c1.3-0.4,2.7-0.4,4.1,0c0.6,0.2,1.1,0.5,1.6,0.8
	C18.3,7.1,18.7,7.5,19,8C19.7,8.8,19.7,9.9,19.2,10.8z M30,18.2c-0.1-0.2-0.1-0.4-0.2-0.6s-0.2-0.4-0.4-0.5
	c-0.2-0.2-0.3-0.3-0.5-0.5l-3.5-2.7c0.2-0.2,0.3-0.5,0.4-0.8c0.2-0.4,0.4-0.8,0.5-1.2s0.2-0.8,0.3-1.3c0.1-0.4,0.1-0.9,0.1-1.3
	c0-1.3-0.4-2.6-1.1-3.7c-0.7-1.2-1.6-2.2-2.7-3c-1.2-0.9-2.5-1.5-3.9-2c-3.1-0.9-6.3-0.9-9.4,0C8.2,1,6.9,1.7,5.7,2.6
	c-1.1,0.8-2,1.8-2.8,3c-0.6,1.2-1,2.4-1,3.8c0,1.3,0.3,2.6,0.9,3.8s1.5,2.3,2.6,3.1c1.2,0.9,2.5,1.7,4,2.1c2.1,0.7,4.3,0.9,6.4,0.7
	c0.5,0,1-0.1,1.5-0.2s1-0.2,1.5-0.4c0.4-0.1,0.8-0.3,1.1-0.4l3.8,2.9c0.2,0.1,0.4,0.3,0.6,0.4s0.4,0.2,0.7,0.3
	c0.2,0.1,0.5,0.1,0.7,0.2c0.5,0.1,1,0.1,1.5,0c0.2,0,0.5-0.1,0.7-0.2s0.4-0.2,0.6-0.3c0.2-0.1,0.4-0.2,0.6-0.4
	c0.2-0.1,0.3-0.3,0.5-0.5c0.1-0.2,0.3-0.3,0.4-0.5s0.2-0.4,0.2-0.6s0.1-0.4,0.1-0.6C30.1,18.6,30.1,18.4,30,18.2z M29.1,19.2
	c0,0.1-0.1,0.3-0.1,0.4c-0.1,0.1-0.1,0.2-0.2,0.4c-0.1,0.1-0.2,0.2-0.3,0.3c-0.1,0.1-0.3,0.2-0.4,0.3c-0.2,0.1-0.3,0.2-0.5,0.2
	c-0.2,0.1-0.4,0.1-0.5,0.1c-0.4,0.1-0.8,0.1-1.2,0c-0.2,0-0.4-0.1-0.5-0.1c-0.2-0.1-0.3-0.1-0.5-0.2s-0.3-0.2-0.4-0.3L20.1,17
	l-0.3,0.1c-0.4,0.2-0.9,0.3-1.3,0.5c-0.4,0.1-0.9,0.3-1.4,0.3s-0.9,0.2-1.4,0.2c-2,0.2-4.1,0-6-0.7c-1.3-0.4-2.6-1.1-3.7-2
	c-1-0.8-1.8-1.7-2.4-2.8c-0.5-1-0.8-2.2-0.8-3.3c0-1.2,0.4-2.3,1-3.3s1.5-2,2.5-2.7c1.1-0.8,2.3-1.4,3.6-1.8c2.9-0.9,5.9-0.9,8.8,0
	c1.3,0.4,2.5,1,3.6,1.8c1,0.7,1.8,1.6,2.4,2.7c0.6,1,0.9,2.1,1,3.3c0,0.4,0,0.8-0.1,1.1c-0.1,0.4-0.1,0.7-0.3,1.1
	c-0.1,0.4-0.3,0.7-0.5,1.1c-0.2,0.4-0.4,0.7-0.6,1L24,14.1l4.3,3.3c0.1,0.1,0.2,0.2,0.4,0.3c0.1,0.1,0.2,0.2,0.3,0.4
	c0.1,0.1,0.1,0.2,0.2,0.4c0,0.1,0.1,0.3,0.1,0.4C29.1,19,29.1,19.1,29.1,19.2z M28.7,24.9c-0.1,0.1-0.2,0.2-0.3,0.3
	c-0.1,0.1-0.3,0.2-0.4,0.3c-0.2,0.1-0.3,0.2-0.5,0.2c-0.2,0.1-0.4,0.1-0.5,0.1c-0.4,0.1-0.8,0.1-1.2,0c-0.2,0-0.4-0.1-0.5-0.1
	c-0.2-0.1-0.3-0.1-0.5-0.2s-0.3-0.2-0.4-0.3L20.1,22l-0.3,0.1c-0.4,0.2-0.9,0.3-1.3,0.5c-0.4,0.1-0.9,0.3-1.4,0.3s-0.9,0.2-1.4,0.2
	c-2,0.2-4.1,0-6-0.7c-1.3-0.4-2.6-1.1-3.7-2c-1-0.8-1.8-1.7-2.4-2.8c-0.2-0.3-0.3-0.7-0.4-1L2.3,17c0.1,0.4,0.3,0.8,0.5,1.1
	c0.6,1.2,1.5,2.3,2.6,3.1c1.2,0.9,2.5,1.7,4,2.1c2.1,0.7,4.3,0.9,6.4,0.7c0.5,0,1-0.1,1.5-0.2s1-0.2,1.5-0.4
	c0.4-0.1,0.8-0.3,1.1-0.4l3.8,2.9c0.2,0.1,0.4,0.3,0.6,0.4s0.4,0.2,0.7,0.3c0.2,0.1,0.5,0.1,0.7,0.2c0.5,0.1,1,0.1,1.5,0
	c0.2,0,0.5-0.1,0.7-0.2s0.4-0.2,0.6-0.3c0.2-0.1,0.4-0.2,0.6-0.4c0.2-0.1,0.3-0.3,0.5-0.5c0.1-0.2,0.3-0.3,0.3-0.5L29,24.5
	C28.9,24.7,28.8,24.8,28.7,24.9z M28.7,30c-0.1,0.1-0.2,0.2-0.3,0.3c-0.1,0.1-0.3,0.2-0.4,0.3c-0.2,0.1-0.3,0.2-0.5,0.2
	c-0.2,0.1-0.4,0.1-0.5,0.1c-0.4,0.1-0.8,0.1-1.2,0c-0.2,0-0.4-0.1-0.5-0.1c-0.2-0.1-0.3-0.1-0.5-0.2s-0.3-0.2-0.4-0.3L20.2,27
	l-0.3,0.1c-0.4,0.2-0.9,0.3-1.3,0.5c-0.5,0.1-0.9,0.3-1.4,0.3s-0.9,0.2-1.4,0.2c-2,0.2-4.1,0-6-0.7c-1.3-0.4-2.6-1.1-3.7-2
	c-1-0.8-1.8-1.7-2.4-2.8c-0.2-0.3-0.3-0.7-0.4-1l-0.9,0.3c0.1,0.4,0.3,0.8,0.5,1.1c0.6,1.2,1.5,2.3,2.6,3.1c1.2,0.9,2.5,1.7,4,2.1
	c2.1,0.7,4.3,0.9,6.4,0.7c0.5-0.1,1-0.1,1.5-0.2s1-0.2,1.5-0.4c0.4-0.1,0.8-0.3,1.1-0.4l3.8,2.9c0.2,0.1,0.4,0.3,0.6,0.4
	s0.4,0.2,0.7,0.3c0.2,0.1,0.5,0.1,0.7,0.2c0.5,0.1,1,0.1,1.5,0c0.2,0,0.5-0.1,0.7-0.2s0.4-0.2,0.6-0.3c0.2-0.1,0.4-0.2,0.6-0.4
	c0.2-0.1,0.3-0.3,0.5-0.5c0.1-0.2,0.3-0.3,0.3-0.5l-1-0.1C28.9,29.8,28.8,29.9,28.7,30z"/>
</svg>
