<?xml version="1.0" encoding="utf-8"?>
<!-- Generator: Adobe Illustrator 23.1.1, SVG Export Plug-In . SVG Version: 6.00 Build 0)  -->
<svg version="1.1" id="Ebene_1" xmlns="http://www.w3.org/2000/svg" xmlns:xlink="http://www.w3.org/1999/xlink" x="0px" y="0px"
	 viewBox="0 0 32 32" style="enable-background:new 0 0 32 32;" xml:space="preserve">
<style type="text/css">
	.st0{fill:#5961ff;}
</style>
<title>redis 32</title>
<path class="st0" d="M31.7,14.3l-2-3.9c-0.1-0.2-0.1-0.4-0.1-0.6l-0.1-1.6c-0.1-1-0.8-1.9-1.8-2.2l-1.9-0.4c-0.6-0.1-1-0.7-1-1.3v-1
	c0-0.9-0.5-1.7-1.2-2.1l-1.7-0.9c-0.7-0.4-1.5-0.4-2.2,0l-3.6,2l-3.6-2c-0.7-0.4-1.5-0.4-2.2,0L8.5,1.2C7.8,1.6,7.3,2.4,7.3,3.3v1.2
	c0,0.6-0.4,1.2-1,1.3l-2,0.4c-1,0.2-1.8,1.1-1.8,2.2L2.4,9.9c0,0.2-0.1,0.4-0.1,0.5l-2,3.9c-0.4,0.7-0.3,1.5,0,2.2L3,21.3
	c0.1,0.2,0.2,0.4,0.2,0.7v1.9C3.1,25,3.9,26,5,26.2l0.8,0.2c0.6,0.1,1,0.6,1.1,1.2L7,28.4c0.1,0.6,0.3,1.2,0.8,1.5l1.7,1.5
	c0.4,0.4,1,0.6,1.5,0.6c0.3,0,0.6-0.1,0.9-0.2l4.2-1.7l4.2,1.6c0.8,0.4,1.8,0.2,2.5-0.4l1.7-1.5c0.5-0.4,0.7-1,0.8-1.5l0.1-0.8
	c0-0.6,0.5-1.1,1.1-1.2l0.8-0.2c1.1-0.2,1.9-1.2,1.9-2.3V22c0-0.2,0.1-0.5,0.2-0.7l2.6-4.8C32.1,15.9,32.1,15,31.7,14.3z M11.4,30.9
	c-0.5,0.2-1,0.1-1.4-0.2l-1.7-1.5C8,29,7.9,28.7,7.8,28.3l-0.1-0.8c-0.1-1-0.8-1.9-1.8-2.1l-0.8-0.2C4.5,25.1,4,24.5,4,23.9v-1.7
	h2.3c0.2,0,0.4,0,0.6-0.1L9,24.5l0.8-0.7l-2-2.3l0.1-0.1c0.8-0.8,2.7-2.4,2.7-2.4L10,18.2c0,0.3-1.8,1.8-2.7,2.7
	c-0.2,0.2-0.6,0.4-0.9,0.4H4c0-0.1-0.1-0.3-0.1-0.4l-2.7-4.8c-0.2-0.4-0.2-0.9,0-1.3L3.1,11h2.7c0.2,0,0.4,0,0.6-0.1l2.1,2.4
	l0.8-0.7l-2-2.3l0.1-0.1C8.2,9.5,10.1,8,10.1,8L9.5,7.2C9.4,7.3,7.6,8.8,6.7,9.6C6.5,9.9,6.1,10,5.8,10H3.4V9.9l0.1-1.6
	c0-0.6,0.5-1.1,1-1.2l1.9-0.4c1.1-0.2,1.8-1.2,1.8-2.3V3.3c0-0.5,0.3-1,0.7-1.2l1.7-0.9C11,1,11.5,1,11.8,1.2l3.5,2v26.1L11.4,30.9z
	 M30.8,16.1l-2.6,4.8c-0.1,0.1-0.1,0.2-0.1,0.4h-2.5c-0.3,0-0.7-0.1-0.9-0.4c-0.9-0.9-2.7-2.4-2.8-2.4l-0.6,0.8c0,0,1.9,1.6,2.7,2.4
	l0.1,0.1l-2,2.3l0.8,0.7l2.1-2.4c0.2,0.1,0.4,0.1,0.6,0.1h2.3v1.7c0,0.6-0.4,1.2-1.1,1.3L26,25.7c-1,0.2-1.8,1.1-1.8,2.1l-0.1,0.8
	c0,0.3-0.2,0.7-0.5,0.9L22,30.7c-0.4,0.3-0.9,0.4-1.4,0.2l-4.1-1.6V3.2l3.5-2c0.4-0.2,0.9-0.2,1.2,0L23,2.1c0.4,0.2,0.7,0.7,0.7,1.2
	v1.2c0,1.1,0.8,2,1.8,2.3l1.9,0.4c0.6,0.1,1,0.6,1,1.2l0.1,1.6v0.1h-2.4c-0.3,0-0.7-0.1-0.9-0.4c-0.8-0.8-2.7-2.4-2.8-2.4L21.9,8
	c0,0,1.9,1.6,2.7,2.4l0.1,0.1l-2,2.3l0.8,0.7l2.1-2.4C25.8,11,26,11,26.2,11h2.7l1.9,3.8C31.1,15.2,31.1,15.7,30.8,16.1L30.8,16.1z"
	/>
</svg>
