<?xml version="1.0" encoding="utf-8"?>
<!-- Generator: Adobe Illustrator 24.2.1, SVG Export Plug-In . SVG Version: 6.00 Build 0)  -->
<svg version="1.1" id="Layer_1" xmlns="http://www.w3.org/2000/svg" xmlns:xlink="http://www.w3.org/1999/xlink" x="0px" y="0px"
	 viewBox="0 0 800 800" style="enable-background:new 0 0 800 800;" xml:space="preserve">
<style type="text/css">
	.st0{fill:#E02020;}
	.st1{fill:#E02020;stroke:#FFFFFF;stroke-width:5.1469;stroke-linecap:round;stroke-linejoin:round;stroke-miterlimit:10;}
	.st2{fill:#B52411;}
	.st3{fill:#FFFFFF;stroke:#B52411;stroke-width:6.0031;stroke-miterlimit:10;}
</style>
<circle class="st0" cx="400.5" cy="400" r="399.5"/>
<g>
	<g>
		<path class="st1" d="M395.49,426.58l-152.93-88.14c-2.61-1.49-2.26-4.14,0.73-5.9l151.48-87.45c3.14-1.72,6.91-1.88,10.19-0.42
			l152.93,88.14c2.6,1.53,2.3,4.18-0.73,5.9l-151.44,87.45C402.58,427.93,398.77,428.09,395.49,426.58z"/>
		<path class="st1" d="M395.41,426.5l-152.89-88.13c-2.65-1.53-2.3-4.18,0.73-5.9l151.44-87.44c3.15-1.78,6.95-1.93,10.23-0.42
			l152.9,88.13c2.65,1.5,2.3,4.14-0.73,5.9l-151.44,87.44C402.49,427.82,398.7,427.98,395.41,426.5z"/>
		<path class="st1" d="M559.57,335.34c-0.17,1.48-1.12,2.75-2.49,3.33l-151.44,87.45c-3.16,1.73-6.94,1.89-10.23,0.42l-152.89-88.14
			c-0.6-0.32-1.1-0.8-1.45-1.38v28.24c0.1,1.06,0.76,1.99,1.72,2.45l152.93,88.14c3.29,1.47,7.08,1.32,10.23-0.42l151.44-87.45
			c1.3-0.59,2.23-1.78,2.49-3.18v-29.47C559.88,335.34,559.57,335.34,559.57,335.34z"/>
	</g>
	<g>
		<path class="st1" d="M395.49,366.74l-152.93-88.14c-2.61-1.49-2.26-4.14,0.73-5.9l151.48-87.45c3.14-1.72,6.91-1.88,10.19-0.42
			l152.93,88.14c2.6,1.53,2.3,4.18-0.73,5.9l-151.44,87.45C402.58,368.09,398.77,368.25,395.49,366.74z"/>
		<path class="st1" d="M395.41,366.66l-152.89-88.13c-2.65-1.53-2.3-4.18,0.73-5.9l151.44-87.44c3.15-1.78,6.95-1.93,10.23-0.42
			l152.9,88.13c2.65,1.5,2.3,4.14-0.73,5.9l-151.44,87.44C402.49,367.98,398.7,368.14,395.41,366.66z"/>
		<path class="st1" d="M559.57,275.5c-0.17,1.48-1.12,2.75-2.49,3.33l-151.44,87.45c-3.16,1.73-6.94,1.89-10.23,0.42l-152.89-88.14
			c-0.6-0.32-1.1-0.8-1.45-1.38v28.24c0.1,1.06,0.76,1.99,1.72,2.45l152.93,88.14c3.29,1.47,7.08,1.32,10.23-0.42l151.44-87.45
			c1.3-0.59,2.23-1.78,2.49-3.18V275.5C559.88,275.5,559.57,275.5,559.57,275.5z"/>
	</g>
	<g>
		<path class="st1" d="M395.49,304.86l-152.93-88.14c-2.61-1.49-2.26-4.14,0.73-5.9l151.48-87.45c3.14-1.72,6.91-1.88,10.19-0.42
			l152.93,88.14c2.6,1.53,2.3,4.18-0.73,5.9l-151.44,87.45C402.58,306.21,398.77,306.37,395.49,304.86z"/>
		<path class="st1" d="M395.41,304.78l-152.89-88.13c-2.65-1.53-2.3-4.18,0.73-5.9l151.44-87.44c3.15-1.78,6.95-1.93,10.23-0.42
			l152.9,88.13c2.65,1.5,2.3,4.14-0.73,5.9l-151.44,87.44C402.49,306.1,398.7,306.26,395.41,304.78z"/>
		<path class="st1" d="M559.57,213.62c-0.17,1.48-1.12,2.75-2.49,3.33L405.65,304.4c-3.16,1.73-6.94,1.89-10.23,0.42l-152.89-88.14
			c-0.6-0.32-1.1-0.8-1.45-1.38v28.24c0.1,1.06,0.76,1.99,1.72,2.45l152.93,88.14c3.29,1.47,7.08,1.32,10.23-0.42l151.44-87.45
			c1.3-0.59,2.23-1.78,2.49-3.18v-29.47C559.88,213.62,559.57,213.62,559.57,213.62z"/>
	</g>
</g>
<path class="st2" d="M19.97,521.9C71.51,682.92,222.38,799.5,400.5,799.5c178.12,0,328.99-116.58,380.53-277.6H19.97z"/>
<g>
	<path class="st3" d="M482.68,675.8v36.53c0,0.73-0.1,1.4-0.26,2.03l0,0l0,0c-0.73,3.59-3.9,6.29-7.64,6.29H325.5
		c-4,0-7.33-3.07-7.74-6.96c-0.1-0.47-0.1-0.88-0.1-1.4v-36.53c0-4.31,3.53-7.79,7.79-7.79c2.13,0,4.1,0.88,5.51,2.29
		c1.4,1.4,2.29,3.38,2.29,5.51V705h133.9v-29.25c0-4.31,3.53-7.79,7.79-7.79c2.13,0,4.1,0.88,5.51,2.29
		C481.8,671.69,482.68,673.67,482.68,675.8z"/>
	<path class="st3" d="M445.11,639.22l-38.3,38.3c-0.05,0.1-0.16,0.16-0.21,0.21c-1.4,1.4-3.22,2.29-5.04,2.55
		c-0.16,0-0.31,0.05-0.47,0.05c-0.31,0.05-0.62,0.05-0.94,0.05l0,0l-0.88-0.05c-0.16,0-0.31-0.05-0.47-0.05
		c-1.87-0.26-3.64-1.14-5.04-2.55c-0.05-0.05-0.16-0.16-0.21-0.21l-38.3-38.3c-1.77-1.77-2.65-4.1-2.65-6.44
		c0-2.34,0.88-4.68,2.65-6.44c3.53-3.53,9.3-3.53,12.89,0l23.02,23.02v-68.39c0-4.99,4.1-9.09,9.09-9.09c2.49,0,4.78,1.04,6.44,2.65
		c1.66,1.66,2.65,3.9,2.65,6.44v68.39l23.02-23.02c3.53-3.53,9.3-3.53,12.89,0C448.64,629.92,448.64,635.69,445.11,639.22z"/>
</g>
</svg>
