<?xml version="1.0" encoding="utf-8"?>
<!-- Generator: Adobe Illustrator 24.2.1, SVG Export Plug-In . SVG Version: 6.00 Build 0)  -->
<svg version="1.1" id="Layer_1" xmlns="http://www.w3.org/2000/svg" xmlns:xlink="http://www.w3.org/1999/xlink" x="0px" y="0px"
	 viewBox="0 0 800 800" style="enable-background:new 0 0 800 800;" xml:space="preserve">
<style type="text/css">
	.st0{fill:#5961FF;}
	.st1{fill:#5961FF;stroke:#FFFFFF;stroke-width:6.0106;stroke-linecap:round;stroke-linejoin:round;stroke-miterlimit:10;}
	.st2{fill:#4145F2;}
	.st3{fill:none;stroke:#FFFFFF;stroke-width:9.0159;stroke-miterlimit:10;}
</style>
<circle class="st0" cx="400" cy="400" r="400"/>
<g>
	<g>
		<path class="st1" d="M394.34,426.62l-153.12-88.25c-2.61-1.49-2.26-4.14,0.73-5.91l151.67-87.56c3.15-1.73,6.92-1.88,10.21-0.42
			l153.12,88.25c2.61,1.53,2.3,4.18-0.73,5.91l-151.63,87.56C401.44,427.97,397.63,428.13,394.34,426.62z"/>
		<path class="st1" d="M394.26,426.54L241.18,338.3c-2.65-1.53-2.3-4.18,0.73-5.91l151.63-87.55c3.15-1.78,6.96-1.93,10.24-0.42
			l153.09,88.24c2.65,1.5,2.3,4.14-0.73,5.91l-151.63,87.55C401.35,427.86,397.56,428.01,394.26,426.54z"/>
		<path class="st1" d="M558.63,335.26c-0.17,1.48-1.12,2.76-2.49,3.34l-151.63,87.56c-3.16,1.74-6.95,1.89-10.25,0.42l-153.08-88.25
			c-0.6-0.32-1.11-0.8-1.46-1.38v28.28c0.1,1.06,0.76,1.99,1.72,2.45l153.12,88.25c3.29,1.47,7.09,1.32,10.25-0.42l151.63-87.56
			c1.3-0.59,2.23-1.78,2.49-3.18v-29.51C558.94,335.26,558.63,335.26,558.63,335.26z"/>
	</g>
	<g>
		<path class="st1" d="M394.34,366.7l-153.12-88.25c-2.61-1.49-2.26-4.14,0.73-5.91l151.67-87.56c3.15-1.73,6.92-1.88,10.21-0.42
			l153.12,88.25c2.61,1.53,2.3,4.18-0.73,5.91l-151.63,87.56C401.44,368.05,397.63,368.21,394.34,366.7z"/>
		<path class="st1" d="M394.26,366.62l-153.08-88.24c-2.65-1.53-2.3-4.18,0.73-5.91l151.63-87.55c3.15-1.78,6.96-1.93,10.24-0.42
			l153.09,88.24c2.65,1.5,2.3,4.14-0.73,5.91L404.51,366.2C401.35,367.94,397.56,368.1,394.26,366.62z"/>
		<path class="st1" d="M558.63,275.35c-0.17,1.48-1.12,2.76-2.49,3.34l-151.63,87.56c-3.16,1.74-6.95,1.89-10.25,0.42l-153.08-88.25
			c-0.6-0.32-1.11-0.8-1.46-1.38v28.28c0.1,1.06,0.76,1.99,1.72,2.45l153.12,88.25c3.29,1.47,7.09,1.32,10.25-0.42l151.63-87.56
			c1.3-0.59,2.23-1.78,2.49-3.18v-29.51C558.94,275.35,558.63,275.35,558.63,275.35z"/>
	</g>
	<g>
		<path class="st1" d="M394.34,304.74L241.22,216.5c-2.61-1.49-2.26-4.14,0.73-5.91l151.67-87.56c3.15-1.73,6.92-1.88,10.21-0.42
			l153.12,88.25c2.61,1.53,2.3,4.18-0.73,5.91l-151.63,87.56C401.44,306.1,397.63,306.25,394.34,304.74z"/>
		<path class="st1" d="M394.26,304.67l-153.08-88.24c-2.65-1.53-2.3-4.18,0.73-5.91l151.63-87.55c3.15-1.78,6.96-1.93,10.24-0.42
			l153.09,88.24c2.65,1.5,2.3,4.14-0.73,5.91l-151.63,87.55C401.35,305.98,397.56,306.14,394.26,304.67z"/>
		<path class="st1" d="M558.63,213.39c-0.17,1.48-1.12,2.76-2.49,3.34l-151.63,87.56c-3.16,1.74-6.95,1.89-10.25,0.42l-153.08-88.25
			c-0.6-0.32-1.11-0.8-1.46-1.38v28.28c0.1,1.06,0.76,1.99,1.72,2.45l153.12,88.25c3.29,1.47,7.09,1.32,10.25-0.42l151.63-87.56
			c1.3-0.59,2.23-1.78,2.49-3.18v-29.51C558.94,213.39,558.63,213.39,558.63,213.39z"/>
	</g>
</g>
<path class="st2" d="M18.99,522.05C70.6,683.27,221.66,800,400,800c178.35,0,329.4-116.73,381.01-277.95H18.99z"/>
<path class="st3" d="M457.88,622.05c-0.92,0-1.82,0.08-2.72,0.14c-6.93-24.5-29.41-42.47-56.13-42.47
	c-26.72,0-49.19,17.97-56.13,42.47c-0.91-0.05-1.8-0.14-2.72-0.14c-25.23,0-45.68,20.45-45.68,45.68
	c0,25.23,20.45,45.68,45.68,45.68c0.99,0,116.71,0,117.7,0c25.23,0,45.68-20.45,45.68-45.68
	C503.56,642.5,483.11,622.05,457.88,622.05z"/>
</svg>
