<?xml version="1.0" encoding="utf-8"?>
<svg version="1.1" id="Ebene_1" xmlns="http://www.w3.org/2000/svg" xmlns:xlink="http://www.w3.org/1999/xlink" x="0px" y="0px"
	 viewBox="0 0 39 31" style="enable-background:new 0 0 32 32;" xml:space="preserve">
<style type="text/css">
	.st0{fill:#5961ff;}
</style>
  <path d="M21.7371 15.2903C21.5759 15.2895 21.4198 15.2337 21.2947 15.1321 21.1695 15.0305 21.0828 14.8892 21.049 14.7316S21.0362 14.4096 21.1086 14.2655C21.1811 14.1215 21.3005 14.0066 21.4472 13.9397L35.7199 7.47338 21.4578 1.34289C21.2943 1.26329 21.1678 1.12377 21.1045.953307 21.0412.78285 21.046.594558 21.1179.427547 21.1898.260535 21.3233.127641 21.4906.0564719 21.6579-.0146977 21.8462-.0186728 22.0164.045373L37.7492 6.80518C37.8747 6.8605 37.9814 6.95112 38.0563 7.06599S38.171 7.31503 38.171 7.45216 38.1312 7.72347 38.0563 7.83834C37.9814 7.95321 37.8747 8.04383 37.7492 8.09915L22.0306 15.2266C21.9388 15.2698 21.8385 15.2916 21.7371 15.2903z" fill="#db2e2e"></path>
  <path d="M16.4339 15.2903C16.3379 15.2906 16.2429 15.2714 16.1546 15.2337L.421813 8.47393C.296339 8.41861.18966 8.32799.114767 8.21312.0398745 8.09825.0 7.96407.0 7.82694.0 7.68981.0398745 7.55564.114767 7.44077.18966 7.3259.296339 7.23528.421813 7.17995L16.1546.052465C16.3235-.0111265 16.5104-.00772359 16.6768.0619772 16.8433.131678 16.9768.2624 17.0501.427363 17.1233.592325 17.1306.779042 17.0706.949259 17.0106 1.11948 16.8878 1.26031 16.7274 1.34291L2.44763 7.80573 16.7132 13.9362C16.8612 14.0015 16.9823 14.1154 17.0565 14.2592 17.1306 14.4029 17.1532 14.5677 17.1205 14.7261 17.0878 14.8845 17.0019 15.0269 16.8769 15.1295 16.752 15.2322 16.5956 15.2889 16.4339 15.2903z" fill="#db2e2e"></path>
  <path fill-rule="evenodd" clip-rule="evenodd" d="M29.1651 17.4328c3.1288-1.2763 6.2047-2.5279 7.1875-3.0617L37.1163 13.9539C37.3908 13.8108 37.6564 13.6514 37.9118 13.4766 37.972 13.8833 37.972 14.2967 37.9118 14.7034 37.8022 15.1312 37.4875 15.4847 36.289 16.061 35.4617 16.4605 33.1531 17.408 30.5792 18.4687c-3.6167 1.4884-7.778 3.1819-9.0826 3.889C19.2587 23.4183 18.0284 23.4183 16.3137 22.644 15.4864 22.2021 12.4918 20.9117 9.39476 19.5611c-3.3198-1.446-6.75627-2.945-7.77802-3.4753C.22377 15.3575.153061 15.1948.160132 14.8271V13.8655L.513678 14.0564c1.311652.6647 7.219412 3.1819 11.486722 5.0204 2.1142.898 3.8112 1.6298 4.3769 1.8844C18.092 21.7319 19.3082 21.8733 21.5603 20.6748 22.7022 20.0808 25.9619 18.7409 29.1651 17.4328z" fill="#494c4d"></path>
  <path fill-rule="evenodd" clip-rule="evenodd" d="M29.1651 24.5037c3.1288-1.2763 6.2047-2.5279 7.1875-3.0617L37.1163 21.0248C37.3908 20.8817 37.6564 20.7223 37.9118 20.5475 37.972 20.9542 37.972 21.3676 37.9118 21.7743 37.8022 22.2021 37.4875 22.5557 36.289 23.1319 35.4617 23.5314 33.1531 24.4789 30.5792 25.5396c-3.6167 1.4884-7.778 3.1819-9.0826 3.889-2.2379 1.0606-3.4682 1.0606-5.1829.2864C15.4864 29.2801 12.4918 27.9755 9.39476 26.625c-3.3198-1.446-6.75627-2.9451-7.77802-3.4754C.22377 22.4213.153061 22.2587.160132 21.891V20.9364L.513678 21.1273C1.82533 21.792 7.73309 24.3092 12.0004 26.1477c2.1001.898 3.8006 1.6298 4.3663 1.8844C18.0814 28.8028 19.2976 28.9442 21.5497 27.7457 22.7022 27.1518 25.9619 25.8118 29.1651 24.5037z" fill="#494c4d"></path>
</svg>