<svg xmlns="http://www.w3.org/2000/svg" width="26" height="23" viewBox="0 0 26 23">
    <g fill="none">
        <path fill="#FFF" stroke="#FFF" stroke-width=".665" d="M14.037.02c-1.35-.497-1.897-.486-3.484.087-1.357.49-7.34 2.84-9.754 3.789-.386.151-.669.294-1.13.923v2.534c0 .226.18.487.65.897-.197.136-.4.337-.66.69l.594 3.321c-.177.135-.363.33-.594.646l.259 3.049c.169.175.473.367.91.575.658.316 2.857 1.236 4.984 2.125 1.982.83 3.902 1.632 4.44 1.89 1.216.583 2.057.618 3.608-.2.73-.386 2.837-1.295 4.881-2.179 1.94-.838 3.823-1.652 4.445-1.98.386-.202.66-.373 1.117-1.03L24.3 12.59c-.015-.213-.182-.447-.6-.696.18-.153.37-.366.609-.712l-.201-2.973c-.093-.112-.247-.234-.462-.382.198-.157.4-.377.665-.759l-.278-3.028c-.167-.153-.468-.308-.903-.468-.625-.23-2.595-1.006-4.561-1.781-1.954-.77-3.904-1.54-4.533-1.772z" transform="translate(1 1)"/>
        <path fill="#A32422" d="M23.031 15.896c-1.278.67-7.906 3.405-9.326 4.156-1.42.75-2.193.73-3.309.195C9.28 19.71 2.244 16.84.971 16.23c-.636-.302-.97-.56-.97-.802v-2.433s9.182-2 10.664-2.538c1.483-.537 1.994-.552 3.257-.09 1.263.463 8.803 1.83 10.048 2.288v2.395c0 .25-.286.5-.939.843v.002z" transform="translate(1 1)"/>
        <path fill="#DC382C" d="M23.031 13.466c-1.278.667-7.906 3.403-9.326 4.14-1.42.738-2.193.73-3.309.198C9.28 17.27 2.244 14.409.971 13.8c-1.274-.608-1.298-1.03-.05-1.52s8.262-3.25 9.744-3.785c1.483-.536 1.994-.553 3.257-.088 1.263.465 7.848 3.095 9.094 3.553 1.246.457 1.296.835.015 1.5v.005z" transform="translate(1 1)"/>
        <path fill="#A32422" d="M23.031 11.933c-1.278.668-7.906 3.403-9.326 4.14-1.42.738-2.193.73-3.309.198S2.244 12.878.971 12.268c-.636-.305-.97-.562-.97-.805v-2.43s9.182-2 10.664-2.54c1.483-.54 1.994-.553 3.257-.088 1.263.465 8.803 1.828 10.048 2.286v2.397c0 .25-.286.5-.939.845z" transform="translate(1 1)"/>
        <path fill="#DC382C" d="M23.031 9.5c-1.278.67-7.906 3.403-9.326 4.141-1.42.738-2.193.733-3.309.197-1.116-.535-8.152-3.392-9.425-4.002-1.274-.61-1.298-1.028-.05-1.518s8.262-3.25 9.744-3.785c1.483-.535 1.994-.553 3.257-.09 1.263.462 7.848 3.107 9.094 3.552 1.246.446 1.296.836.015 1.5v.006z" transform="translate(1 1)"/>
        <path fill="#A32422" d="M23.031 7.82c-1.278.67-7.906 3.406-9.326 4.143-1.42.738-2.193.73-3.309.195C9.28 11.623 2.244 8.766.971 8.155.335 7.853 0 7.595 0 7.353V4.92s9.182-2 10.664-2.538c1.483-.537 1.994-.552 3.257-.09 1.263.463 8.803 1.83 10.048 2.288v2.398c0 .25-.286.5-.939.842z" transform="translate(1 1)"/>
        <path fill="#DC382C" d="M23.031 5.39c-1.278.66-7.906 3.41-9.326 4.14-1.42.73-2.193.73-3.309.198S2.244 6.333.971 5.725c-1.274-.607-1.298-1.03-.05-1.52S9.183.955 10.665.42c1.483-.535 1.994-.553 3.257-.088 1.263.465 7.848 3.096 9.094 3.553 1.246.458 1.296.835.015 1.5v.005z" transform="translate(1 1)"/>
        <path fill="#FFF" d="M12.395 1.812L13.714 1.199 13.357 2.41 14.699 3.122 12.969 3.378 12.58 4.701 11.955 3.225 9.955 2.969 11.448 2.207 11 1.035 12.395 1.812 12.395 1.812zM11.685 8.89L8.374 7.178 13.117 6.272 11.685 8.89 11.685 8.89zM6.794 4.177c1.746 0 3.161.587 3.161 1.31 0 .722-1.42 1.309-3.16 1.309-1.742 0-3.165-.587-3.165-1.31 0-.722 1.418-1.31 3.164-1.31z" transform="translate(1 1)"/>
        <path fill="#741113" d="M16.807 3.653L20.496 5.224 16.81 6.796 16.807 3.653 16.807 3.653z" transform="translate(1 1)"/>
        <path fill="#AC2724" d="M17.331 3.653L17.334 6.635 16.973 6.796 13.645 5.304 17.331 3.653 17.331 3.653z" transform="translate(1 1)"/>
    </g>
</svg>
